<svg xmlns:xlink="http://www.w3.org/1999/xlink" id="InitialInquiriesPay-icone" width="26" height="22" viewBox="0 0 26 22" fill="none" xmlns="http://www.w3.org/2000/svg" class="32 p-2 icone"><path fill-rule="evenodd" clip-rule="evenodd" d="M13.0007 13.5443C14.4734 13.5443 15.6673 12.3504 15.6673 10.8776C15.6673 9.40484 14.4734 8.21094 13.0007 8.21094C11.5279 8.21094 10.334 9.40484 10.334 10.8776C10.334 12.3504 11.5279 13.5443 13.0007 13.5443Z" stroke="#BDBDBD" stroke-width="2px" stroke-linecap="round" stroke-linejoin="round" fill="none"></path><path fill-rule="evenodd" clip-rule="evenodd" d="M23.4053 19.2813V19.2813C20.0653 18.6133 16.62 18.6959 13.316 19.5213L13 19.6013C9.488 20.4786 5.82533 20.5666 2.276 19.8559L2.072 19.8146C1.448 19.6906 1 19.1426 1 18.5079V4.05593C1 3.2146 1.76933 2.58393 2.59467 2.74793V2.74793C5.93467 3.41593 9.38 3.33326 12.684 2.50793L13.3147 2.3506C16.6187 1.52526 20.0653 1.4426 23.404 2.1106L23.9267 2.2146C24.552 2.33993 25 2.8866 25 3.5226V17.9746C25 18.8159 24.2307 19.4466 23.4053 19.2813V19.2813Z" stroke="#3D3D3D" stroke-width="2px" stroke-linecap="round" stroke-linejoin="round" fill="none"></path><path d="M21.0007 5.76812C20.1127 5.68678 19.2233 5.65078 18.334 5.67345" stroke="#8B8B8B" stroke-width="2px" stroke-linecap="round" stroke-linejoin="round" fill="none"></path><path d="M5 16.2373C5.888 16.3187 6.77733 16.3533 7.66667 16.332" stroke="#8B8B8B" stroke-width="2px" stroke-linecap="round" stroke-linejoin="round" fill="none"></path></svg>