<svg xmlns:xlink="http://www.w3.org/1999/xlink" id="PrePayment-discont" width="32" height="32" viewBox="0 0 32 32" fill="none" xmlns="http://www.w3.org/2000/svg" class="24"><path d="M12.643 26.3256C13.0363 26.2736 13.4337 26.3802 13.747 26.6216L15.191 27.7296C15.6683 28.0962 16.3323 28.0962 16.8083 27.7296L18.307 26.5789C18.587 26.3642 18.9403 26.2696 19.2897 26.3162L21.1643 26.5629C21.7603 26.6416 22.335 26.3096 22.5657 25.7536L23.287 24.0096C23.4217 23.6829 23.6803 23.4242 24.007 23.2896L25.751 22.5682C26.307 22.3389 26.639 21.7629 26.5603 21.1669L26.323 19.3602C26.271 18.9669 26.3777 18.5696 26.619 18.2562L27.727 16.8122C28.0937 16.3349 28.0937 15.6709 27.727 15.1949L26.5763 13.6962C26.3617 13.4162 26.267 13.0629 26.3137 12.7136L26.5603 10.8389C26.639 10.2429 26.307 9.66824 25.751 9.43757L24.007 8.71624C23.6803 8.58157 23.4217 8.32291 23.287 7.99624L22.5657 6.25224C22.3363 5.69624 21.7603 5.36424 21.1643 5.44291L19.2897 5.68957C18.9403 5.73757 18.587 5.64291 18.3083 5.42957L16.8097 4.27891C16.3323 3.91224 15.6683 3.91224 15.1923 4.27891L13.6937 5.42957C13.4137 5.64291 13.0603 5.73757 12.711 5.69224L10.8363 5.44557C10.2403 5.36691 9.66567 5.69891 9.435 6.25491L8.715 7.99891C8.579 8.32424 8.32033 8.58291 7.995 8.71891L6.251 9.43891C5.695 9.66957 5.363 10.2442 5.44167 10.8402L5.68833 12.7149C5.73367 13.0642 5.639 13.4176 5.42567 13.6962L4.275 15.1949C3.90833 15.6722 3.90833 16.3362 4.275 16.8122L5.42567 18.3109C5.64033 18.5909 5.735 18.9442 5.68833 19.2936L5.44167 21.1682C5.363 21.7642 5.695 22.3389 6.251 22.5696L7.995 23.2909C8.32167 23.4256 8.58033 23.6842 8.715 24.0109L9.43633 25.7549C9.66567 26.3109 10.2417 26.6429 10.8377 26.5642L12.643 26.3256" stroke="#8B8B8B" stroke-width="2px" stroke-linecap="round" stroke-linejoin="round" fill="none"></path><path d="M13.1992 18.8031L18.7992 13.2031" stroke="#8B8B8B" stroke-width="2px" stroke-linecap="round" stroke-linejoin="round" fill="none"></path><path d="M19.0532 18.6088C19.1786 18.7342 19.1786 18.937 19.0532 19.061C18.9278 19.1864 18.7251 19.1864 18.601 19.061C18.4756 18.9356 18.4756 18.7329 18.601 18.6088C18.7251 18.4834 18.9278 18.4834 19.0532 18.6088" stroke="#8B8B8B" stroke-width="2px" stroke-linecap="round" stroke-linejoin="round" fill="none"></path><path d="M13.4006 12.9484C13.526 13.0738 13.526 13.2765 13.4006 13.4006C13.2752 13.526 13.0725 13.526 12.9484 13.4006C12.8244 13.2752 12.823 13.0725 12.9484 12.9484C13.0738 12.8244 13.2765 12.823 13.4006 12.9484" stroke="#8B8B8B" stroke-width="2px" stroke-linecap="round" stroke-linejoin="round" fill="none"></path></svg>