<svg xmlns:xlink="http://www.w3.org/1999/xlink" id="Logo-no-text" width="88" height="80" viewBox="0 0 88 80" fill="none" xmlns="http://www.w3.org/2000/svg" class="whp-80 logo"><path d="M50.4998 21.0255C48.9128 20.4796 47.2808 20.1388 45.621 20.0049C44.7113 19.9319 43.9491 20.6813 44.0114 21.5941L44.2893 25.621C44.3378 26.3373 44.8899 26.9111 45.6019 26.9998C46.9908 27.1702 48.3172 27.5631 49.5448 28.1421C50.1872 28.4446 50.9547 28.2412 51.3731 27.6657L53.7464 24.4004C54.2812 23.6632 54.0399 22.6217 53.2325 22.2009C52.3539 21.7419 51.4424 21.3507 50.4998 21.0255ZM62.2071 37.6894L58.2518 38.4683C57.5504 38.6057 57.0503 39.2247 57.0503 39.941C57.0503 41.3285 56.8281 42.7229 56.415 44.0096C56.1979 44.6842 56.4967 45.4196 57.1164 45.7621L60.6462 47.713C61.4413 48.1529 62.4448 47.7825 62.7607 46.9288C63.6272 44.5869 64.0474 42.1127 63.9968 39.5828C63.9936 39.4194 63.9883 39.256 63.9813 39.0943C63.9413 38.1797 63.1027 37.5138 62.2071 37.6894ZM61.3979 30.0842C60.5698 28.622 59.5714 27.2849 58.4169 26.0852C57.7831 25.428 56.7153 25.4836 56.1597 26.2086L53.7047 29.4096C53.2689 29.9782 53.3018 30.7745 53.7758 31.3118C54.7031 32.3602 55.4392 33.5356 55.9757 34.7822C56.2569 35.436 56.9671 35.7907 57.6597 35.6377L61.5976 34.7648C62.4847 34.5684 62.9934 33.626 62.6669 32.7758C62.3129 31.8508 61.8892 30.9536 61.3979 30.0842Z" fill="#A5A7AA"></path><path d="M55.7203 48.2211C55.1059 47.8648 54.3228 47.9916 53.8557 48.5307C51.7218 50.991 48.6889 52.6479 45.2719 52.9817C44.8535 53.0234 44.4283 53.0443 43.9975 53.0443C43.567 53.0443 43.1416 53.0234 42.7232 52.9817C40.4765 52.7627 38.3949 51.9715 36.6258 50.7544C35.9226 50.2712 35.2697 49.7218 34.6759 49.113C33.1585 47.5623 32.0229 45.6357 31.424 43.4884C31.1983 42.6799 31.0473 41.8384 30.983 40.976C30.9568 40.6456 30.9448 40.31 30.9448 39.9727C30.9448 38.048 31.3615 36.2206 32.1116 34.574C32.4657 33.7933 32.8947 33.0544 33.3895 32.3659C34.7523 30.4654 36.6099 28.9441 38.7734 27.9947C39.2544 27.7843 39.7492 27.4366 39.9887 27.0315C40.1659 26.7324 41.1259 24.5886 41.1259 24.5886C41.5878 23.674 41.7144 22.5647 40.4556 22.1579L37.8602 21.3215C37.5026 21.1703 37.1015 21.1633 36.7386 21.3042C36.5632 21.3737 36.386 21.445 36.2124 21.518C33.8303 22.5265 31.6914 23.9713 29.8561 25.8092C28.9135 26.7533 28.0749 27.7756 27.3474 28.871C26.8769 29.5787 26.4515 30.3159 26.073 31.0809C25.8958 31.4391 25.7292 31.8043 25.5729 32.1746C24.5295 34.647 24 37.2708 24 39.9727C24 40.7169 24.04 41.4559 24.1199 42.1878C24.2118 43.0363 24.3594 43.8744 24.5592 44.7003C24.8125 45.7452 25.1495 46.7693 25.5712 47.7691C26.5784 50.1547 28.0211 52.2966 29.8561 54.1345C29.9672 54.2458 30.0803 54.3553 30.1931 54.4632C30.8111 55.0544 31.4622 55.602 32.1428 56.1046C33.3998 57.033 34.7611 57.8101 36.2124 58.424C38.2907 59.3038 40.4765 59.8184 42.7249 59.9591C43.1468 59.9853 43.5723 59.9991 43.9993 59.9991C44.4265 59.9991 44.8517 59.9853 45.2736 59.9591C47.5238 59.8184 49.7079 59.3038 51.7862 58.424C54.1683 57.4155 56.3074 55.9707 58.1424 54.1328C58.6754 53.599 59.1755 53.0393 59.6407 52.4567C60.2069 51.7455 60.0036 50.6953 59.2172 50.2415L55.7203 48.2211Z" fill="#0058A0"></path></svg>