<svg xmlns:xlink="http://www.w3.org/1999/xlink" id="InitialInquiriesPay-state" width="48" height="48" viewBox="0 0 48 48" fill="none" xmlns="http://www.w3.org/2000/svg" class="32"><rect width="48" height="48" rx="24" fill="#DFE1F3"></rect><path fill-rule="evenodd" clip-rule="evenodd" d="M31 22H24.535C24.2007 22.0001 23.8885 21.8331 23.703 21.555L22.3 19.446C22.1141 19.1667 21.8005 18.9992 21.465 19H17C15.8954 19 15 19.8954 15 21V31C15 32.1046 15.8954 33 17 33H31C32.1046 33 33 32.1046 33 31V24C33 22.8954 32.1046 22 31 22Z" fill="#C3C6E8" stroke="#8A90D2" stroke-width="1.5px" stroke-linecap="round" stroke-linejoin="round"></path><path d="M17 19V17C17 15.8954 17.8954 15 19 15H29C30.1046 15 31 15.8954 31 17V22" stroke="#8A90D2" stroke-width="1.5px" stroke-linecap="round" stroke-linejoin="round" fill="none"></path></svg>