<svg xmlns:xlink="http://www.w3.org/1999/xlink" id="InitialInquiriesPay-payButton" width="24" height="24" viewBox="0 0 24 24" fill="none" xmlns="http://www.w3.org/2000/svg" class="32 ms-2"><path d="M14.9807 15.9987L20.4147 10.5648C21.1957 9.78375 21.1957 8.51775 20.4147 7.73675L17.2637 4.58575C16.4827 3.80475 15.2167 3.80475 14.4357 4.58575L8.29473 10.7267C7.51373 11.5077 7.51373 12.7738 8.29473 13.5548L10.7387 15.9987" stroke="#FFFFFF" stroke-width="1.5px" stroke-linecap="round" stroke-linejoin="round" fill="none"></path><path fill-rule="evenodd" clip-rule="evenodd" d="M20 20H4C3.448 20 3 19.552 3 19V17C3 16.448 3.448 16 4 16H20C20.552 16 21 16.448 21 17V19C21 19.552 20.552 20 20 20Z" stroke="#FFFFFF" stroke-width="1.5px" stroke-linecap="round" stroke-linejoin="round" fill="none"></path><path d="M3 4H8" stroke="#FFFFFF" stroke-width="1.5px" stroke-linecap="round" stroke-linejoin="round" fill="none"></path><path d="M3 7H6" stroke="#FFFFFF" stroke-width="1.5px" stroke-linecap="round" stroke-linejoin="round" fill="none"></path><path d="M3 10H4" stroke="#FFFFFF" stroke-width="1.5px" stroke-linecap="round" stroke-linejoin="round" fill="none"></path><path d="M9.11914 14.3802L18.0891 5.41016" stroke="#FFFFFF" stroke-width="1.5px" stroke-linecap="round" stroke-linejoin="round" fill="none"></path></svg>