<svg xmlns:xlink="http://www.w3.org/1999/xlink" xmlns="http://www.w3.org/2000/svg" width="32" height="32" viewBox="0 0 32 32" fill="none"><path d="M5.33301 11.4668V28.0001H26.6663V11.4668" stroke="#028BFF" stroke-width="2px" stroke-linecap="round" stroke-linejoin="round" fill="none"></path><path d="M2.66699 13.3333L16.0003 4L29.3337 13.3333" stroke="#028BFF" stroke-width="2px" stroke-linecap="round" stroke-linejoin="round" fill="none"></path><path d="M20 28.0007V20.0007C20 18.5273 18.8067 17.334 17.3333 17.334H14.6667C13.1933 17.334 12 18.5273 12 20.0007V28.0007" stroke="#028BFF" stroke-width="2px" stroke-linecap="round" stroke-linejoin="round" fill="none"></path><path d="M16 17C15 17 12.5 18 12.5 18.5C12.5 18.8925 12.1791 24.7721 12.0096 27.8271L20 29V23C20.1667 22.1667 20.5 20.4 20.5 20C20.5 19.6 19.1667 17.8333 18.5 17H16Z" fill="#028BFF"></path></svg>