<svg xmlns:xlink="http://www.w3.org/1999/xlink" id="Top-Avatar" width="56" height="56" viewBox="0 0 56 56" fill="none" xmlns="http://www.w3.org/2000/svg" class="whp-48"><rect width="56" height="56" rx="24" fill="#F2F3F6"></rect><mask id="mask0_12370_209204" style="mask-type:alpha;" maskUnits="userSpaceOnUse" x="0" y="0" width="56" height="56" fill="none"><rect width="56" height="56" rx="24" fill="#F2F3F6"></rect></mask><g mask="url(#mask0_12370_209204)" fill="none"><path d="M56.4665 41.0677C56.9716 41.3039 57.4441 41.6045 57.8723 41.9619C57.3385 42.8457 56.7644 43.7019 56.1498 44.5305C53.5086 48.0994 50.1753 51.0981 46.3493 53.3468C45.046 51.2831 43.7638 49.2498 42.5996 47.4162C42.4874 47.2414 42.3792 47.0669 42.2706 46.8965L39.1096 41.9076L38.4792 40.9153L37.695 39.6793C37.695 39.6793 38.1573 39.6214 38.948 39.5531C42.2751 39.2739 51.4025 38.737 56.4665 41.0677Z" fill="#00569F"></path><path d="M22.2838 41.8676C21.6412 42.2397 23.3138 41.667 23.8163 41.4876L23.9565 41.4386L24.5796 41.4105C26.4877 41.3222 32.4947 41.0585 38.482 40.9142C38.6843 40.9117 38.887 40.9053 39.0895 40.9008C43.2976 40.807 47.4244 40.78 50.0278 40.9175C52.4015 41.0467 54.4344 42.4292 56.1585 44.53C53.459 48.1793 50.0338 51.2292 46.0989 53.4877C42.1639 55.7462 37.8045 57.1641 33.2954 57.6522C28.7863 58.1402 24.2254 57.6878 19.9 56.3235C15.5747 54.9591 11.5787 52.7124 8.16411 49.7249C8.0709 49.645 7.9775 49.5671 7.8945 49.4861C11.0579 46.4617 15.6472 43.6295 22.2838 41.8676Z" fill="#00569F"></path><path d="M30.8239 53.4957C42.6328 51.6575 44.1075 42.7647 44.1161 42.6765C44.124 42.6012 44.1608 42.5319 44.2187 42.4832C44.2766 42.4345 44.3511 42.4103 44.4266 42.4156C44.5013 42.4207 44.571 42.4552 44.6203 42.5116C44.6697 42.568 44.6948 42.6416 44.6901 42.7165C44.6813 42.8067 43.2287 51.7421 31.7214 53.9255C31.4578 53.9766 31.1885 54.023 30.9115 54.0667C30.874 54.0725 30.8358 54.0708 30.799 54.0618C30.7622 54.0528 30.7275 54.0366 30.697 54.0141C30.6664 53.9917 30.6406 53.9635 30.621 53.931C30.6013 53.8986 30.5883 53.8626 30.5825 53.8251C30.5768 53.7876 30.5784 53.7494 30.5875 53.7125C30.5965 53.6757 30.6127 53.641 30.6351 53.6104C30.6575 53.5798 30.6857 53.5539 30.7181 53.5343C30.7505 53.5146 30.7864 53.5015 30.8239 53.4957Z" fill="#0D060E"></path><path d="M23.8397 41.1277L24.1599 41.0558C24.25 41.0365 24.344 41.0535 24.4216 41.1032C24.4992 41.1528 24.5541 41.2311 24.5745 41.321C24.5804 41.3504 24.5822 41.3806 24.5799 41.4105C24.5763 41.4863 24.5479 41.5588 24.4991 41.6169C24.4504 41.675 24.3839 41.7155 24.3099 41.7321L23.7933 41.8494C16.3666 43.5704 11.4259 46.6272 8.15835 49.7243C8.06514 49.6444 7.97174 49.5665 7.88873 49.4855L7.63815 49.2587C11.0117 46.0485 16.1309 42.8817 23.8397 41.1277Z" fill="#0D060E"></path><path d="M37.567 27.5487L37.6683 31.8193C37.6683 31.8193 39.3802 40.4232 39.0831 42.2614C38.7859 44.0996 36.3765 47.8857 31.5415 48.169C30.1858 48.2475 28.826 48.1178 27.5095 47.7845C26.3736 47.4879 25.3765 46.804 24.6901 45.8506C24.0037 44.8971 23.671 43.7338 23.7492 42.561L24.1637 36.0548C19.8987 35.698 19.8241 30.8454 19.8241 30.8454L18.9499 15.7889L36.0586 11.0646L37.567 27.5487Z" fill="#FDA380"></path><path d="M33.7372 31.3548C33.7372 31.3548 33.9243 39.4756 23.8592 40.8392L24.1653 36.04C24.1653 36.04 30.7976 36.9846 33.7372 31.3548Z" fill="#835A58"></path><path d="M31.2042 22.6413C31.2335 22.6681 31.2543 22.703 31.2638 22.7415C31.2734 22.7801 31.2714 22.8206 31.258 22.858C31.2446 22.8954 31.2205 22.928 31.1886 22.9517C31.1568 22.9754 31.1186 22.9892 31.079 22.9912C31.0516 22.9931 31.0242 22.9894 30.9983 22.9802C30.9725 22.9711 30.9487 22.9567 30.9286 22.9381C30.8194 22.8363 28.2345 20.4874 26.0947 22.4265C26.0548 22.4587 26.0041 22.4744 25.953 22.4704C25.9018 22.4665 25.8542 22.4431 25.8197 22.4051C25.7852 22.3671 25.7665 22.3173 25.7675 22.266C25.7684 22.2147 25.7889 22.1656 25.8248 22.1289C28.2378 19.9374 31.1745 22.6142 31.2042 22.6413Z" fill="#2D0F28"></path><path d="M37.8992 20.4736L33.5929 21.6321L32.8538 22.4944C32.8538 22.4944 32.8067 15.1723 33.5438 13.6907C34.2809 12.2091 37.8992 20.4736 37.8992 20.4736Z" fill="#3D3D3D"></path><path d="M22.813 21.9045C22.8343 21.9207 22.8522 21.9409 22.8656 21.964C22.879 21.9871 22.8876 22.0127 22.8911 22.0392C22.8945 22.0657 22.8926 22.0927 22.8855 22.1184C22.8784 22.1442 22.8663 22.1683 22.8498 22.1894C22.8321 22.2125 22.8096 22.2314 22.7838 22.245C22.7581 22.2585 22.7297 22.2663 22.7007 22.2678C22.6522 22.2697 22.6045 22.255 22.5653 22.2263C22.5485 22.2125 20.7396 20.8337 19.8352 21.7122C19.7964 21.7494 19.7445 21.7698 19.6908 21.7687C19.6371 21.7676 19.586 21.7452 19.5488 21.7064C19.5116 21.6676 19.4913 21.6156 19.4924 21.5619C19.4935 21.5081 19.5159 21.457 19.5547 21.4197C20.7103 20.3068 22.7264 21.8394 22.813 21.9045Z" fill="#2D0F28"></path><path d="M27.6199 23.4081C27.7389 23.4013 27.8572 23.4299 27.96 23.4904C28.0627 23.5508 28.1453 23.6404 28.1972 23.7479C28.2492 23.8553 28.2682 23.9757 28.2518 24.0939C28.2354 24.2121 28.1845 24.3229 28.1053 24.4121C28.0262 24.5014 27.9224 24.5652 27.8071 24.5954C27.6917 24.6257 27.5701 24.6211 27.4574 24.5822C27.3447 24.5433 27.246 24.4718 27.1739 24.3768C27.1018 24.2818 27.0593 24.1676 27.052 24.0485C27.0471 23.969 27.0579 23.8895 27.0839 23.8142C27.1098 23.739 27.1503 23.6697 27.203 23.6102C27.2558 23.5507 27.3198 23.5022 27.3913 23.4675C27.4629 23.4328 27.5405 23.4126 27.6199 23.4081Z" fill="#010103"></path><path d="M21.1609 23.1736C21.2799 23.1672 21.3981 23.1962 21.5006 23.2569C21.6031 23.3176 21.6854 23.4074 21.737 23.5149C21.7886 23.6224 21.8073 23.7428 21.7907 23.8609C21.7741 23.979 21.7229 24.0895 21.6436 24.1786C21.5643 24.2676 21.4605 24.3312 21.3452 24.3613C21.2299 24.3914 21.1083 24.3866 20.9957 24.3476C20.8832 24.3086 20.7847 24.237 20.7126 24.142C20.6406 24.047 20.5983 23.9328 20.591 23.8138C20.5862 23.7342 20.5971 23.6545 20.6232 23.5792C20.6492 23.5039 20.6899 23.4344 20.7429 23.3749C20.7958 23.3154 20.8601 23.267 20.9318 23.2325C21.0035 23.1979 21.0814 23.1779 21.1609 23.1736Z" fill="#010103"></path><path d="M35.4471 19.702C36.1644 19.6585 36.8785 19.829 37.4989 20.192C38.1193 20.555 38.6182 21.0941 38.9324 21.7411C39.2465 22.3882 39.3619 23.114 39.2639 23.8268C39.1658 24.5396 38.8588 25.2073 38.3816 25.7454C37.9044 26.2836 37.2786 26.6679 36.5832 26.8498C35.8879 27.0317 35.1543 27.003 34.4753 26.7673C33.7964 26.5316 33.2025 26.0996 32.769 25.5258C32.3355 24.9521 32.0818 24.2624 32.0399 23.5441C31.9839 22.5826 32.3112 21.6381 32.95 20.9178C33.5888 20.1975 34.4868 19.7602 35.4471 19.702Z" fill="#FDA380"></path><path d="M35.7719 21.5359C36.5386 21.0526 37.4944 21.2999 37.5334 21.3138C37.5463 21.3173 37.5583 21.3233 37.5688 21.3314C37.5793 21.3395 37.5881 21.3497 37.5947 21.3612C37.6012 21.3728 37.6054 21.3855 37.6071 21.3987C37.6087 21.4119 37.6077 21.4253 37.6041 21.4381C37.6009 21.4509 37.5952 21.4629 37.5873 21.4734C37.5793 21.484 37.5694 21.4928 37.558 21.4994C37.5466 21.506 37.534 21.5103 37.521 21.512C37.5079 21.5136 37.4947 21.5126 37.482 21.5091C37.482 21.5091 36.5696 21.2721 35.8783 21.7082C35.5445 21.9258 35.302 22.2583 35.1968 22.6429C35.4601 22.4276 35.7816 22.2956 36.1201 22.2639C36.4586 22.2322 36.7989 22.3021 37.0975 22.4648C37.3749 22.6219 37.5916 22.8676 37.7129 23.1627C37.8342 23.4577 37.8531 23.785 37.7667 24.0921C37.7025 24.4148 37.5354 24.7078 37.2905 24.9272C37.0457 25.1466 36.7363 25.2805 36.4089 25.3086L36.3889 25.3067C36.362 25.3081 36.3356 25.2987 36.3156 25.2806C36.2955 25.2625 36.2835 25.2372 36.2821 25.2102C36.2808 25.1833 36.2901 25.1569 36.3082 25.1368C36.3263 25.1168 36.3515 25.1047 36.3785 25.1033L36.3985 25.1053C36.6828 25.0814 36.9514 24.9646 37.1629 24.7729C37.3744 24.5813 37.5172 24.3253 37.5693 24.0445C37.6437 23.7807 37.6282 23.4996 37.5254 23.2455C37.4226 22.9915 37.2382 22.779 37.0014 22.6415C35.9462 22.0669 35.1316 22.9582 35.0976 22.9953L34.8548 23.2669L34.9241 22.9096C34.9596 22.6334 35.0536 22.368 35.1998 22.1311C35.346 21.8942 35.5411 21.6913 35.7719 21.5359Z" fill="#3D3D3D"></path><path d="M23.3954 22.6051C23.4085 22.6061 23.4214 22.6097 23.4332 22.6157C23.4449 22.6217 23.4554 22.6299 23.464 22.64C23.4726 22.65 23.4791 22.6617 23.4832 22.6743C23.4873 22.6868 23.4889 22.7001 23.4878 22.7133L23.1175 27.5082L25.1773 28.0578C25.2029 28.0652 25.2246 28.0823 25.2378 28.1055C25.251 28.1287 25.2547 28.1562 25.248 28.182C25.2424 28.2025 25.2305 28.2207 25.2139 28.2339C25.1974 28.2472 25.1771 28.2549 25.1559 28.256C25.1451 28.2569 25.1343 28.2559 25.1239 28.2528L22.8999 27.6669L23.2745 22.7045C23.274 22.6894 23.277 22.6743 23.2832 22.6605C23.2894 22.6467 23.2988 22.6346 23.3104 22.6249C23.3221 22.6153 23.3359 22.6085 23.3506 22.6051C23.3653 22.6017 23.3806 22.6016 23.3954 22.6051Z" fill="#3D3D3D"></path><path d="M24.8874 31.8101C23.4259 31.8573 22.8386 30.2602 22.8386 30.2602C22.8386 30.2602 26.7701 30.1231 26.834 30.1314C26.834 30.1314 26.3489 31.763 24.8874 31.8101Z" fill="#FBFDFA"></path><path d="M20.1465 8.74956C20.1465 8.74956 18.5486 7.23768 19.9775 5.8319C21.4063 4.42612 34.0814 8.31305 36.398 10.8219C38.7147 13.3307 37.8979 20.4772 37.8979 20.4772C34.728 16.2199 30.4276 15.2325 30.4276 15.2325C24.1548 17.6753 13.3277 16.4193 14.1995 11.9304C15.0713 7.44151 20.1465 8.74956 20.1465 8.74956Z" fill="#3D3D3D"></path></g></svg>