<svg xmlns:xlink="http://www.w3.org/1999/xlink" width="24" height="24" viewBox="0 0 24 24" fill="none" xmlns="http://www.w3.org/2000/svg"><path fill-rule="evenodd" clip-rule="evenodd" d="M11 19.392V7.50298C11 6.81298 10.645 6.17198 10.06 5.80698L6.06 3.30698C4.728 2.47498 3 3.43198 3 5.00298V16.891C3 17.581 3.355 18.222 3.94 18.587L7.94 21.087C9.272 21.92 11 20.962 11 19.392Z" stroke="#002C51" stroke-width="1.5px" stroke-linecap="round" stroke-linejoin="round" fill="none"></path><path d="M15 11H21" stroke="#FF6F5E" stroke-width="1.5px" stroke-linecap="round" stroke-linejoin="round" fill="none"></path><path d="M18.9999 13L20.9999 11L18.9999 9" stroke="#FF6F5E" stroke-width="1.5px" stroke-linecap="round" stroke-linejoin="round" fill="none"></path><path d="M11.0001 18.999H15.0001C16.1051 18.999 17.0001 18.104 17.0001 16.999V15.999" stroke="#002C51" stroke-width="1.5px" stroke-linecap="round" stroke-linejoin="round" fill="none"></path><path d="M17.0001 6V5C17.0001 3.895 16.1051 3 15.0001 3H5.00012" stroke="#002C51" stroke-width="1.5px" stroke-linecap="round" stroke-linejoin="round" fill="none"></path></svg>