<svg xmlns:xlink="http://www.w3.org/1999/xlink" id="UserPanelHome-qr" width="24" height="24" viewBox="0 0 24 24" fill="none" xmlns="http://www.w3.org/2000/svg" class="32  ms-2"><path fill-rule="evenodd" clip-rule="evenodd" d="M16.2863 17.1423H9.42913C8.48199 17.1423 7.71484 16.4848 7.71484 15.673V11.7544C7.71484 10.9427 8.48199 10.2852 9.42913 10.2852H16.2863C17.2334 10.2852 18.0006 10.9427 18.0006 11.7544V15.6723C18.0006 16.4841 17.2334 17.1423 16.2863 17.1423Z" fill="#FFFFFF"></path><path d="M6 10.5H18" stroke="#3D3D3D" stroke-width="1.5px" stroke-linecap="round" stroke-linejoin="round" fill="none"></path><path d="M7.5 3H5C3.895 3 3 3.895 3 5V7.5" stroke="#3D3D3D" stroke-width="1.5px" stroke-linecap="round" stroke-linejoin="round" fill="none"></path><path d="M3 16.5V19C3 20.105 3.895 21 5 21H7.5" stroke="#3D3D3D" stroke-width="1.5px" stroke-linecap="round" stroke-linejoin="round" fill="none"></path><path d="M16.5 21H19C20.105 21 21 20.105 21 19V16.5" stroke="#3D3D3D" stroke-width="1.5px" stroke-linecap="round" stroke-linejoin="round" fill="none"></path><path d="M21 7.5V5C21 3.895 20.105 3 19 3H16.5" stroke="#3D3D3D" stroke-width="1.5px" stroke-linecap="round" stroke-linejoin="round" fill="none"></path><path d="M11 13.5H9" stroke="#3D3D3D" stroke-width="1.5px" stroke-linecap="round" stroke-linejoin="round" fill="none"></path><path fill-rule="evenodd" clip-rule="evenodd" d="M16 16.666H8C6.895 16.666 6 15.771 6 14.666V9.33203C6 8.22703 6.895 7.33203 8 7.33203H16C17.105 7.33203 18 8.22703 18 9.33203V14.665C18 15.77 17.105 16.666 16 16.666Z" stroke="#3D3D3D" stroke-width="1.5px" stroke-linecap="round" stroke-linejoin="round" fill="none"></path></svg>