<svg xmlns:xlink="http://www.w3.org/1999/xlink" id="header-signout" width="40" height="40" viewBox="0 0 40 40" fill="none" xmlns="http://www.w3.org/2000/svg" class="col-12"><path fill-rule="evenodd" clip-rule="evenodd" d="M18.3333 32.32V12.505C18.3333 11.355 17.7417 10.2866 16.7667 9.6783L10.1 5.51164C7.88 4.12497 5 5.71997 5 8.3383V28.1516C5 29.3016 5.59167 30.37 6.56667 30.9783L13.2333 35.145C15.4533 36.5333 18.3333 34.9366 18.3333 32.32Z" stroke="#FFFFFF" stroke-width="2.5px" stroke-linecap="round" stroke-linejoin="round" fill="none"></path><path d="M25 18.3333H35" stroke="#FFFFFF" stroke-width="2.5px" stroke-linecap="round" stroke-linejoin="round" fill="none"></path><path d="M31.666 21.6667L34.9993 18.3333L31.666 15" stroke="#FFFFFF" stroke-width="2.5px" stroke-linecap="round" stroke-linejoin="round" fill="none"></path><path d="M18.334 31.6641H25.0007C26.8423 31.6641 28.334 30.1724 28.334 28.3307V26.6641" stroke="#FFFFFF" stroke-width="2.5px" stroke-linecap="round" stroke-linejoin="round" fill="none"></path><path d="M28.334 10V8.33333C28.334 6.49167 26.8423 5 25.0007 5H8.33398" stroke="#FFFFFF" stroke-width="2.5px" stroke-linecap="round" stroke-linejoin="round" fill="none"></path></svg>