<svg xmlns:xlink="http://www.w3.org/1999/xlink" width="32" height="32" viewBox="0 0 32 32" fill="none" xmlns="http://www.w3.org/2000/svg"><path d="M5.33301 15.8753V10.7886C5.33301 9.1246 6.36367 7.63393 7.91967 7.04593L19.057 2.8406C20.8023 2.18327 22.6663 3.47127 22.6663 5.3366V9.80327" stroke="#002C51" stroke-width="2px" stroke-linecap="round" stroke-linejoin="round" fill="none"></path><path d="M22.9983 18.8021C22.8143 18.8034 22.6663 18.9527 22.6663 19.1367C22.6663 19.3207 22.8157 19.4701 22.9997 19.4687C23.1837 19.4687 23.333 19.3194 23.333 19.1354C23.333 18.9514 23.1837 18.8021 22.9983 18.8021" stroke="#002C51" stroke-width="2px" stroke-linecap="round" stroke-linejoin="round" fill="none"></path><path d="M14.2157 28.0007H23.9997C26.1997 28.0007 27.9997 26.2007 27.9997 24.0007V13.802C27.9997 11.5927 26.209 9.802 23.9997 9.802H7.99967C6.52634 9.802 5.33301 10.9953 5.33301 12.4687V16.3433" stroke="#002C51" stroke-width="2px" stroke-linecap="round" stroke-linejoin="round" fill="none"></path><path d="M10.0003 29.3334C5.95099 29.3334 2.66699 26.0494 2.66699 22.0001C2.66699 17.9507 5.95099 14.6667 10.0003 14.6667C14.051 14.6667 17.3337 17.9507 17.3337 22.0001C17.3337 26.0494 14.051 29.3334 10.0003 29.3334" stroke="#002C51" stroke-width="2px" stroke-linecap="round" stroke-linejoin="round" fill="none"></path><path d="M9.99967 19.0754V24.9248" stroke="#00569F" stroke-width="2px" stroke-linecap="round" stroke-linejoin="round" fill="none"></path><path d="M12.9232 22H7.0752" stroke="#00569F" stroke-width="2px" stroke-linecap="round" stroke-linejoin="round" fill="none"></path></svg>