<svg xmlns:xlink="http://www.w3.org/1999/xlink" id="mobile-header-logo" width="187" height="64" viewBox="0 0 187 64" fill="none" xmlns="http://www.w3.org/2000/svg" class="col-12 col-lg-7"><g clip-path="url(#clip0_1445_5432)" fill="none"><path d="M164.919 2.21095C162.424 1.35392 159.858 0.818966 157.249 0.608802C155.819 0.494166 154.621 1.67054 154.719 3.10347L155.155 9.42476C155.232 10.5493 156.1 11.45 157.219 11.5891C159.402 11.8566 161.487 12.4735 163.417 13.3824C164.427 13.8573 165.634 13.5379 166.291 12.6345L170.022 7.50871C170.863 6.35146 170.484 4.71653 169.215 4.05603C167.833 3.33547 166.4 2.72135 164.919 2.21095ZM183.323 28.3695L177.105 29.5922C176.002 29.8078 175.216 30.7795 175.216 31.904C175.216 34.0821 174.867 36.2711 174.218 38.2908C173.876 39.3498 174.346 40.5042 175.32 41.0419L180.869 44.1044C182.119 44.7949 183.697 44.2134 184.193 42.8734C185.555 39.197 186.216 35.3131 186.137 31.3418C186.131 31.0852 186.123 30.8286 186.112 30.5748C186.049 29.1392 184.731 28.0938 183.323 28.3695ZM182.051 16.4311C180.749 14.1357 179.18 12.0368 177.365 10.1535C176.368 9.12179 174.69 9.20914 173.816 10.3473L169.957 15.3721C169.272 16.2646 169.324 17.5147 170.069 18.3581C171.526 20.0039 172.684 21.8489 173.527 23.8059C173.969 24.8322 175.086 25.389 176.174 25.1488L182.365 23.7786C183.759 23.4702 184.559 21.9909 184.046 20.6562C183.489 19.2042 182.823 17.7958 182.051 16.4311Z" fill="#A5A7AA"></path><path d="M173.125 44.9066C172.159 44.3472 170.928 44.5463 170.193 45.3926C166.839 49.2547 162.071 51.8558 156.699 52.3796C156.041 52.4452 155.373 52.478 154.696 52.478C154.019 52.478 153.35 52.4452 152.692 52.3796C149.161 52.0359 145.888 50.7939 143.107 48.8833C142.002 48.1248 140.975 47.2624 140.042 46.3067C137.656 43.8724 135.871 40.8482 134.93 37.4774C134.575 36.2082 134.337 34.8871 134.236 33.5334C134.195 33.0148 134.176 32.488 134.176 31.9585C134.176 28.9371 134.831 26.0685 136.011 23.4837C136.567 22.2582 137.242 21.0983 138.019 20.0174C140.162 17.0342 143.082 14.6459 146.483 13.1557C147.239 12.8254 148.017 12.2796 148.394 11.6436C148.672 11.1742 150.181 7.80881 150.181 7.80881C150.908 6.37315 151.107 4.6318 149.128 3.99314L145.048 2.68028C144.485 2.44282 143.855 2.43191 143.284 2.65299C143.009 2.76217 142.73 2.87407 142.457 2.9887C138.712 4.57175 135.35 6.83988 132.465 9.72486C130.983 11.2069 129.665 12.8118 128.521 14.5313C127.781 15.6422 127.113 16.7994 126.518 18.0004C126.239 18.5626 125.977 19.1358 125.731 19.7172C124.091 23.5984 123.259 27.717 123.259 31.9585C123.259 33.1267 123.322 34.2867 123.447 35.4358C123.592 36.7677 123.824 38.0833 124.138 39.3797C124.536 41.02 125.066 42.6275 125.729 44.1971C127.312 47.9419 129.58 51.3043 132.465 54.1894C132.64 54.364 132.817 54.5359 132.995 54.7054C133.966 55.6334 134.99 56.493 136.06 57.282C138.036 58.7393 140.176 59.9593 142.457 60.9228C145.724 62.304 149.161 63.1119 152.695 63.3327C153.359 63.3738 154.027 63.3955 154.699 63.3955C155.37 63.3955 156.039 63.3738 156.702 63.3327C160.239 63.1119 163.673 62.304 166.94 60.9228C170.685 59.3398 174.048 57.0718 176.932 54.1866C177.77 53.3487 178.556 52.4701 179.288 51.5555C180.178 50.4391 179.858 48.7905 178.622 48.0782L173.125 44.9066Z" fill="#0058A0"></path><path d="M1.10222 57.1853C1.39457 57.1853 1.63951 57.288 1.83309 57.4934C2.02667 57.6988 2.12543 57.9359 2.12543 58.1966C2.12543 58.4653 2.03457 58.7023 1.85284 58.9117C1.67111 59.1171 1.42222 59.2198 1.10222 59.2198C0.778274 59.2198 0.529389 59.1171 0.351611 58.9117C0.173833 58.7062 0.0869141 58.4692 0.0869141 58.1966C0.0869141 57.9201 0.177779 57.683 0.359507 57.4816C0.541237 57.284 0.790126 57.1853 1.10222 57.1853ZM0.248891 48.7112H1.9832V56.3951H0.248891V48.7112Z" fill="#838484"></path><path d="M6.03652 58.6943C6.23405 58.3782 6.36442 58.0938 6.43158 57.841C6.49874 57.5881 6.53035 57.3274 6.53035 57.0587C6.53035 56.0237 6.06418 55.2178 5.13183 54.6449L6.00097 53.12C6.71208 53.5861 7.26517 54.1471 7.65628 54.8029C8.04739 55.4587 8.24492 56.154 8.24492 56.8889C8.24492 57.3432 8.18961 57.7817 8.07899 58.2044C7.96837 58.6271 7.75899 59.0933 7.45479 59.6108L5.64936 62.6647L4.17578 61.8192L6.03652 58.6943ZM5.9101 52.2745C5.598 52.2745 5.34911 52.1718 5.15949 51.9624C4.96986 51.7531 4.87504 51.5121 4.87504 51.2434C4.87504 50.9511 4.97776 50.7061 5.18319 50.5126C5.38862 50.319 5.62961 50.2202 5.90615 50.2202C6.17479 50.2202 6.41183 50.319 6.62121 50.5126C6.82665 50.7061 6.92936 50.9511 6.92936 51.2434C6.92936 51.5239 6.8306 51.7689 6.63702 51.9703C6.44739 52.1758 6.20245 52.2745 5.9101 52.2745Z" fill="#838484"></path><path d="M9.56445 48.7112H11.2988V59.1487H9.56445V48.7112Z" fill="#838484"></path><path d="M12.5947 53.1555H15.4589C15.9014 53.1555 16.3083 53.2345 16.6757 53.3965C17.0431 53.5585 17.3592 53.7718 17.6239 54.0444C17.8886 54.313 18.09 54.633 18.2402 55.0005C18.3863 55.3679 18.4614 55.759 18.4614 56.1698C18.4614 56.6123 18.3824 57.0153 18.2244 57.3787C18.0663 57.7422 17.849 58.0543 17.5725 58.315C17.296 58.5797 16.9799 58.7851 16.6244 58.9313C16.2688 59.0775 15.8895 59.1526 15.4905 59.1526H12.5987V57.4459H15.4273C15.8105 57.4459 16.1266 57.3313 16.3794 57.1061C16.6323 56.877 16.7547 56.5689 16.7547 56.1738C16.7547 56.0316 16.731 55.8814 16.6797 55.7234C16.6283 55.5693 16.5493 55.4271 16.4426 55.3047C16.336 55.1822 16.1977 55.0834 16.0278 55.0044C15.8579 54.9254 15.6604 54.8859 15.4273 54.8859H12.5987V53.1555H12.5947Z" fill="#838484"></path><path d="M19.7416 58.6231C19.9391 58.2992 20.0695 58.0148 20.1366 57.7619C20.2038 57.5091 20.2354 57.2483 20.2354 56.9797C20.2354 55.9486 19.7692 55.1466 18.8369 54.5738L19.706 53.0488C20.4171 53.515 20.9702 54.076 21.3614 54.7318C21.7525 55.3876 21.95 56.0829 21.95 56.8177C21.95 56.9244 21.95 57.0311 21.95 57.1377C21.95 57.2444 21.9381 57.3471 21.9144 57.4459H22.831V59.1525H21.3574C21.3337 59.2118 21.3021 59.275 21.2665 59.3461C21.2309 59.4172 21.1954 59.4804 21.1598 59.5397L19.3544 62.5935L17.8809 61.7481L19.7416 58.6231Z" fill="#838484"></path><path d="M22.8383 59.1527C22.6171 59.1527 22.4551 59.0658 22.3485 58.888C22.2457 58.7102 22.1904 58.5206 22.1904 58.3073C22.1904 58.0979 22.2418 57.9004 22.3485 57.7186C22.4551 57.5369 22.6171 57.446 22.8383 57.446H27.4329V59.1527H22.8383Z" fill="#838484"></path><path d="M27.8006 61.7995C27.4846 61.7995 27.2317 61.6928 27.046 61.4755C26.8604 61.2583 26.7695 61.0291 26.7695 60.7842C26.7695 60.5037 26.8722 60.2587 27.0737 60.0533C27.2752 59.8479 27.5201 59.7452 27.8006 59.7452C28.0455 59.7452 28.2747 59.84 28.492 60.0296C28.7092 60.2192 28.8159 60.4721 28.8159 60.7881C28.8159 61.0568 28.7211 61.2938 28.5394 61.4992C28.3537 61.6968 28.1048 61.7995 27.8006 61.7995ZM27.4332 59.1526C27.2238 59.1526 27.0658 59.0657 26.9512 58.8879C26.8406 58.7101 26.7853 58.5205 26.7853 58.3071C26.7853 58.0978 26.8406 57.9081 26.9512 57.7383C27.0618 57.5684 27.2238 57.4696 27.4332 57.4459C27.7374 57.4025 28.0139 57.2642 28.2589 57.0271C28.5038 56.7901 28.6263 56.4938 28.6263 56.1343V53.0449H30.3488V56.1343C30.3488 56.6123 30.2539 57.0508 30.0604 57.4459H31.8895V59.1526H29.4678V58.2558C29.1754 58.56 28.8515 58.7852 28.492 58.9353C28.1404 59.0775 27.7848 59.1526 27.4332 59.1526ZM28.9226 63.7116C28.5947 63.7116 28.3379 63.6049 28.1522 63.3995C27.9666 63.1901 27.8757 62.957 27.8757 62.7002C27.8757 62.4079 27.9784 62.159 28.1799 61.9615C28.3813 61.76 28.6302 61.6612 28.9265 61.6612C29.1596 61.6612 29.3888 61.76 29.61 61.9615C29.8313 62.1629 29.9419 62.4079 29.9419 62.7002C29.9419 62.957 29.8431 63.1901 29.6456 63.3995C29.4441 63.6049 29.2031 63.7116 28.9226 63.7116ZM30.0288 61.7995C29.7009 61.7995 29.4441 61.6928 29.2584 61.4874C29.0727 61.278 28.9818 61.0449 28.9818 60.7881C28.9818 60.4958 29.0846 60.2469 29.286 60.0494C29.4875 59.8479 29.7364 59.7491 30.0327 59.7491C30.2658 59.7491 30.4949 59.8479 30.7162 60.0494C30.9374 60.2508 31.048 60.4958 31.048 60.7881C31.048 61.0449 30.9492 61.278 30.7517 61.4874C30.5463 61.6928 30.3093 61.7995 30.0288 61.7995Z" fill="#838484"></path><path d="M31.893 57.4459C32.1972 57.4025 32.4737 57.2642 32.7187 57.0271C32.9636 56.7901 33.0861 56.4938 33.0861 56.1343V53.0449H34.7927V56.1343C34.7927 56.5886 34.7058 56.9995 34.5359 57.3669C34.3661 57.7343 34.1409 58.0504 33.8683 58.315C33.5917 58.5797 33.2796 58.7852 32.932 58.9313C32.5804 59.0775 32.2367 59.1526 31.8969 59.1526C31.6875 59.1526 31.5295 59.0657 31.415 58.8879C31.3043 58.7101 31.249 58.5205 31.249 58.3071C31.249 58.0978 31.3043 57.9081 31.415 57.7383C31.5256 57.5684 31.6836 57.4696 31.893 57.4459ZM33.572 62.0405C33.3033 62.0405 33.0624 61.9457 32.853 61.7521C32.6436 61.5625 32.5369 61.3136 32.5369 61.0054C32.5369 60.7131 32.6396 60.4681 32.8411 60.2706C33.0426 60.0731 33.2875 59.9743 33.568 59.9743C33.8485 59.9743 34.0935 60.077 34.2949 60.2785C34.4964 60.48 34.5991 60.7249 34.5991 61.0054C34.5991 61.2978 34.4964 61.5427 34.2949 61.7402C34.0974 61.9417 33.8525 62.0405 33.572 62.0405Z" fill="#838484"></path><path d="M37.1992 46.3604H39.8302V46.8897H37.1992V46.3604ZM37.1992 47.4468H39.8302V47.9762H37.1992V47.4468Z" fill="#838484"></path><path d="M38.2979 48.7112H40.032V59.1487H38.2979V48.7112Z" fill="#838484"></path><path d="M41.3115 57.4459H44.1402C44.5708 57.4459 44.8987 57.3156 45.1278 57.0588C45.357 56.802 45.4676 56.5057 45.4676 56.1699C45.4676 56.0277 45.4439 55.8775 45.3925 55.7195C45.3412 55.5654 45.2621 55.4232 45.1555 55.3007C45.0488 55.1783 44.9105 55.0795 44.7407 55.0005C44.5747 54.9215 44.3733 54.882 44.1402 54.882H41.3115V53.1516H44.1757C44.6182 53.1516 45.0251 53.2306 45.3925 53.3926C45.7599 53.5546 46.076 53.7679 46.3407 54.0405C46.6053 54.3091 46.8068 54.6291 46.957 54.9966C47.1031 55.364 47.1782 55.7551 47.1782 56.1659C47.1782 56.644 47.0873 57.0706 46.9095 57.442H47.9525V59.1487H41.3194V57.4459H41.3115Z" fill="#838484"></path><path d="M47.9526 59.1527C47.7314 59.1527 47.5694 59.0658 47.4627 58.888C47.36 58.7102 47.3047 58.5206 47.3047 58.3072C47.3047 58.0978 47.356 57.9003 47.4627 57.7186C47.5694 57.5369 47.7314 57.446 47.9526 57.446H49.3274C49.2326 57.2485 49.1536 57.0312 49.0983 56.7981C49.043 56.565 49.0114 56.3319 49.0114 56.0988C49.0114 55.6208 49.0943 55.1981 49.2642 54.8267C49.4301 54.4593 49.6514 54.1512 49.9279 53.9062C50.2044 53.6613 50.5165 53.4756 50.8642 53.3532C51.2158 53.2307 51.5714 53.1675 51.9388 53.1675C52.3931 53.1675 52.8395 53.2623 53.2701 53.4559C53.7047 53.6455 54.0879 53.9576 54.4237 54.3882L53.1832 55.6011C52.9027 55.1349 52.4721 54.9018 51.8993 54.9018C51.5832 54.9018 51.3106 55.0124 51.0815 55.2337C50.8523 55.4549 50.7417 55.7472 50.7417 56.1146C50.7417 56.4662 50.8523 56.7783 51.0736 57.043C51.2948 57.3077 51.6188 57.442 52.0415 57.442H55.6839V59.1487H47.9526V59.1527Z" fill="#838484"></path><path d="M55.6918 57.4459C55.996 57.4025 56.2725 57.2642 56.5175 57.0271C56.7624 56.7901 56.8849 56.4938 56.8849 56.1343V53.0449H58.5916V56.1343C58.5916 56.5886 58.5046 56.9995 58.3348 57.3669C58.1649 57.7343 57.9397 58.0504 57.6671 58.315C57.3906 58.5797 57.0785 58.7852 56.7308 58.9313C56.3792 59.0775 56.0355 59.1526 55.6958 59.1526C55.4864 59.1526 55.3283 59.0657 55.2138 58.8879C55.1032 58.7101 55.0479 58.5205 55.0479 58.3071C55.0479 58.0978 55.1032 57.9081 55.2138 57.7383C55.3204 57.5684 55.4824 57.4696 55.6918 57.4459ZM57.3708 62.0405C57.1022 62.0405 56.8612 61.9457 56.6518 61.7521C56.4424 61.5625 56.3358 61.3136 56.3358 61.0054C56.3358 60.7131 56.4385 60.4681 56.64 60.2706C56.8414 60.0731 57.0864 59.9743 57.3669 59.9743C57.6474 59.9743 57.8884 60.077 58.0938 60.2785C58.2953 60.48 58.398 60.7249 58.398 61.0054C58.398 61.2978 58.2953 61.5427 58.0938 61.7402C57.8923 61.9417 57.6513 62.0405 57.3708 62.0405Z" fill="#838484"></path><path d="M61.957 59.1528V59.0619C61.957 58.5009 62.0321 57.9439 62.1783 57.3947C62.3244 56.8456 62.5378 56.3044 62.8183 55.7671H64.0746C63.8178 56.6007 63.6874 57.4382 63.6874 58.2876C63.6874 58.4298 63.6874 58.572 63.6874 58.7142C63.6874 58.8565 63.6993 58.9987 63.723 59.1488H61.957V59.1528Z" fill="#0058A0"></path><path d="M67.0814 58.6231C67.279 58.2992 67.4093 58.0148 67.4765 57.7619C67.5437 57.5091 67.5753 57.2483 67.5753 56.9797C67.5753 55.9486 67.1091 55.1466 66.1768 54.5738L67.0459 53.0488C67.757 53.515 68.3101 54.076 68.7012 54.7318C69.0923 55.3876 69.2898 56.0829 69.2898 56.8177C69.2898 56.9244 69.2898 57.0311 69.2898 57.1377C69.2898 57.2444 69.278 57.3471 69.2543 57.4459H70.1708V59.1525H68.6973C68.6735 59.2118 68.6419 59.275 68.6064 59.3461C68.5708 59.4172 68.5353 59.4804 68.4997 59.5397L66.6943 62.5935L65.2207 61.7481L67.0814 58.6231Z" fill="#0058A0"></path><path d="M70.1792 59.1527C69.9579 59.1527 69.7959 59.0658 69.6893 58.888C69.5866 58.7102 69.5312 58.5206 69.5312 58.3073C69.5312 58.0979 69.5826 57.9004 69.6893 57.7186C69.7959 57.5369 69.9579 57.446 70.1792 57.446H74.7737V59.1527H70.1792Z" fill="#0058A0"></path><path d="M74.7768 59.1526C74.5674 59.1526 74.4094 59.0656 74.2948 58.8879C74.1842 58.7101 74.1289 58.5205 74.1289 58.3071C74.1289 58.0977 74.1842 57.9002 74.2948 57.7185C74.4054 57.5368 74.5674 57.4459 74.7768 57.4459H80.3946L79.9008 56.4306C79.6677 55.9644 79.3872 55.5891 79.0553 55.3086C78.7274 55.0281 78.364 54.8859 77.9689 54.8859C77.7121 54.8859 77.4909 54.9412 77.3092 55.0518C77.1274 55.1624 76.9496 55.3639 76.7758 55.6563L75.2667 54.795C75.642 54.2024 76.0529 53.7758 76.4953 53.5111C76.9378 53.2464 77.4751 53.116 78.1111 53.116C78.601 53.116 79.0237 53.195 79.3832 53.357C79.7388 53.519 80.0588 53.7481 80.3393 54.0405C80.6198 54.3328 80.8805 54.6923 81.1215 55.1111C81.3625 55.5338 81.6035 56 81.8484 56.5175C82.0222 56.877 82.1961 57.1219 82.366 57.2484C82.5358 57.3787 82.7255 57.4419 82.9348 57.4419V59.1486H74.7768V59.1526ZM78.0598 50.2202C78.3403 50.2202 78.5813 50.3229 78.7788 50.5284C78.9763 50.7338 79.0751 50.9669 79.0751 51.2237C79.0751 51.516 78.9645 51.7649 78.7432 51.9703C78.522 52.1718 78.2929 52.2745 78.0598 52.2745C77.7674 52.2745 77.5185 52.1718 77.321 51.9703C77.1195 51.7689 77.0208 51.52 77.0208 51.2237C77.0208 50.9669 77.1116 50.7338 77.2934 50.5284C77.4751 50.3229 77.7319 50.2202 78.0598 50.2202Z" fill="#0058A0"></path><path d="M82.935 57.4459C83.2392 57.4025 83.5157 57.2642 83.7606 57.0271C84.0056 56.7901 84.128 56.4938 84.128 56.1343V53.0449H85.8347V56.1343C85.8347 56.5886 85.7478 56.9995 85.5779 57.3669C85.408 57.7343 85.1829 58.0504 84.9103 58.315C84.6337 58.5797 84.3216 58.7852 83.974 58.9313C83.6224 59.0775 83.2787 59.1526 82.9389 59.1526C82.7295 59.1526 82.5715 59.0657 82.4569 58.8879C82.3463 58.7101 82.291 58.5205 82.291 58.3071C82.291 58.0978 82.3463 57.9081 82.4569 57.7383C82.5636 57.5684 82.7256 57.4696 82.935 57.4459ZM84.614 62.0405C84.3453 62.0405 84.1043 61.9457 83.895 61.7521C83.6856 61.5625 83.5789 61.3136 83.5789 61.0054C83.5789 60.7131 83.6816 60.4681 83.8831 60.2706C84.0846 60.0731 84.3295 59.9743 84.61 59.9743C84.8905 59.9743 85.1315 60.077 85.3369 60.2785C85.5384 60.48 85.6411 60.7249 85.6411 61.0054C85.6411 61.2978 85.5384 61.5427 85.3369 61.7402C85.1355 61.9417 84.8945 62.0405 84.614 62.0405Z" fill="#0058A0"></path><path d="M98.4103 57.2917C98.4103 57.908 98.3155 58.4966 98.1259 59.0616C97.9362 59.6225 97.6557 60.1243 97.2804 60.5667C96.9051 61.0053 96.431 61.3569 95.8542 61.6216C95.2775 61.8862 94.6019 62.0166 93.8315 62.0166C93.3772 62.0166 92.8952 61.9297 92.3856 61.7598C91.876 61.59 91.4098 61.3253 90.991 60.9697C90.5683 60.6142 90.2207 60.1598 89.9441 59.6107C89.6676 59.0616 89.5293 58.4058 89.5293 57.6433C89.5293 57.0586 89.6281 56.5016 89.8256 55.9722C90.0231 55.4467 90.3115 54.9806 90.6908 54.5737C91.07 54.1667 91.5323 53.8388 92.0775 53.586C92.6226 53.3332 93.235 53.1909 93.9184 53.1554V54.87C93.555 54.8937 93.2073 54.9766 92.8834 55.1188C92.5555 55.2611 92.275 55.4507 92.0379 55.6877C91.8009 55.9287 91.6152 56.2171 91.4809 56.5529C91.3466 56.8927 91.2794 57.268 91.2794 57.6788C91.2794 58.1095 91.3505 58.4887 91.4888 58.8206C91.631 59.1485 91.8246 59.425 92.0775 59.6462C92.3303 59.8675 92.6147 60.0374 92.9387 60.1519C93.2626 60.2704 93.6103 60.3258 93.9817 60.3258C94.3333 60.3258 94.673 60.2586 95.0009 60.1243C95.3288 59.99 95.6172 59.7924 95.8661 59.5277C96.1189 59.263 96.3165 58.947 96.4626 58.5717C96.6088 58.1964 96.6839 57.7697 96.6839 57.2917V53.0803H98.4063V57.2917H98.4103ZM93.9224 58.4887C93.63 58.4887 93.3891 58.3899 93.1994 58.1885C93.0098 57.987 92.915 57.746 92.915 57.4655C92.915 57.1771 93.0098 56.9361 93.1994 56.7346C93.3891 56.5332 93.63 56.4344 93.9224 56.4344C94.2345 56.4344 94.4834 56.5332 94.673 56.7346C94.8626 56.9361 94.9575 57.1771 94.9575 57.4655C94.9575 57.746 94.8587 57.987 94.6572 58.1885C94.4557 58.386 94.2108 58.4887 93.9224 58.4887Z" fill="#0058A0"></path><path d="M102.846 57.0154C103.075 56.7467 103.186 56.4544 103.186 56.1344V48.7112H104.92V56.1344C104.92 56.565 104.837 56.9601 104.675 57.3235C104.509 57.687 104.292 58.003 104.016 58.2796C103.739 58.5561 103.423 58.7695 103.06 58.9235C102.696 59.0776 102.313 59.1527 101.906 59.1527H99.3657V57.446H101.171L98.8008 50.7299L100.452 50.2717L102.846 57.0154Z" fill="#0058A0"></path><path d="M106.256 48.7112H107.99V59.1487H106.256V48.7112Z" fill="#0058A0"></path><path d="M5.2942 28.1362C5.81963 31.5495 7.64482 33.2996 10.7698 33.3984V38.4789H10.1614C6.17519 38.5026 3.03838 36.2113 0.750976 31.6088C0.344063 30.5816 0.142578 29.5584 0.142578 28.5312V9.17322C0.213689 6.36039 1.93221 4.31792 5.2942 3.05371V28.1362Z" fill="#0058A0"></path><path d="M9.40625 33.3948H11.4803V2.83276H16.6675V17.8609C18.4572 17.2169 19.5198 16.8574 19.8517 16.7863L21.2818 16.6086H29.0487C32.865 16.6086 35.8952 18.8406 38.1391 23.3009C38.546 24.3755 38.7475 25.3631 38.7475 26.2718V33.3948H40.9324L40.8968 38.4752H9.40625V33.3948ZM33.7421 33.3948V26.7063C33.1218 23.4392 31.5574 21.8036 29.0527 21.8036H21.3609C18.8799 21.8036 17.3273 23.4392 16.707 26.7063V33.3987H33.7421V33.3948Z" fill="#0058A0"></path><path d="M79.6926 35.0775C78.0689 36.3417 76.6625 37.2741 75.4694 37.8667C74.4422 38.2736 73.419 38.4751 72.3918 38.4751H70.7444C68.8126 38.4751 66.5331 37.4835 63.9099 35.5042H63.3015C60.6309 37.4835 58.3395 38.4751 56.4313 38.4751H54.7839C52.3741 38.4751 49.9405 37.3294 47.4832 35.038C44.9548 37.3294 42.5805 38.4751 40.3602 38.4751H39.4316V33.3946H39.8269C43.1652 33.3709 44.8363 31.0914 44.8363 26.56V16.3951H50.059V28.1679C50.059 30.7674 51.8012 32.4741 55.2817 33.284C58.9558 32.6163 60.7928 30.7911 60.7928 27.8084V16.3911H66.1973V26.8761C66.1973 30.4553 67.7222 32.5175 70.776 33.0667H72.135C75.4496 32.5649 77.1089 30.6212 77.1089 27.2356V16.3911H82.3316V27.7333C82.6397 31.4785 83.979 33.363 86.3415 33.3867V38.4672C84.4136 38.479 82.1973 37.3452 79.6926 35.0775Z" fill="#0058A0"></path><path d="M87.5617 28.2784V20.1204C87.5617 16.3989 89.8175 13.4399 94.3252 11.2473L96.8654 10.7811H98.3311C102.1 10.7811 105.083 12.9777 107.275 17.3668C107.659 18.3466 107.848 19.3224 107.848 20.3021V30.7515C107.848 33.6157 105.426 36.0848 100.583 38.1589L98.58 38.4829H85.1953V33.4024L98.1494 33.3668C101.464 33.3905 103.123 32.2211 103.123 29.8587V28.2468L87.5617 28.2784ZM91.9825 9.07051C90.7617 9.07051 89.7188 8.63989 88.8575 7.77471C87.9924 6.91347 87.5617 5.87051 87.5617 4.64977C87.5617 3.47248 87.9924 2.44927 88.8575 1.58804C89.7188 0.726804 90.7617 0.292236 91.9825 0.292236C93.2032 0.292236 94.2462 0.722854 95.1074 1.58804C95.9686 2.45322 96.4032 3.47248 96.4032 4.64977C96.4032 5.87051 95.9726 6.91347 95.1074 7.77471C94.2462 8.63594 93.2032 9.07051 91.9825 9.07051ZM92.4644 23.8774H103.127V21.195C103.127 17.6394 101.468 15.8616 98.1533 15.8616H97.4383C94.6215 15.8616 92.9662 17.6038 92.4644 21.0843V23.8774ZM102.519 9.07051C101.298 9.07051 100.255 8.63989 99.3938 7.77471C98.5286 6.91347 98.098 5.87051 98.098 4.64977C98.098 3.42903 98.5286 2.39792 99.3938 1.55644C100.255 0.714956 101.298 0.292236 102.519 0.292236C103.74 0.292236 104.782 0.714956 105.644 1.55644C106.505 2.39792 106.94 3.42903 106.94 4.64977C106.94 5.87051 106.509 6.91347 105.644 7.77471C104.782 8.63594 103.74 9.07051 102.519 9.07051Z" fill="#0058A0"></path></g><defs><clipPath id="clip0_1445_5432"><rect width="186.469" height="64" fill="white"></rect></clipPath></defs></svg>