<svg xmlns:xlink="http://www.w3.org/1999/xlink" id="UserPanelHome-vector" width="499" height="400" viewBox="0 0 499 400" fill="none" xmlns="http://www.w3.org/2000/svg" class="32  vector mt-xl-3 col-12"><path d="M66.1036 139.222C63.3318 146.492 59.1532 153.143 53.8072 158.795C48.4613 164.448 42.0528 168.99 34.9489 172.162C27.9019 175.269 19.8143 176.951 12.4869 174.583C5.15938 172.214 -0.906269 164.901 0.112051 157.264C1.49933 146.867 13.5716 142.004 20.0357 133.71C24.3451 128.161 26.0423 121.055 27.4148 114.162C28.7873 107.27 30.027 100.142 33.6428 94.1207C41.1031 81.6648 60.1044 80.7645 66.7677 94.4749C72.6637 106.665 70.6196 127.209 66.1036 139.222Z" fill="#F2F3F6"></path><path d="M465.706 260.276C486.567 240.707 500.314 198.432 466.85 170.546C447.251 154.216 418.369 126.271 408.71 109.683C389.288 76.3809 389.804 7.6591 346.636 0.877677C296.871 -6.9442 250.708 40.0682 212.565 40.8209C185.904 41.3448 152.986 21.9525 114.784 32.4604C76.5823 42.9682 71.1365 74.6616 81.3639 112.539C91.5914 150.416 75.1138 170.443 65.3217 184.64C49.8255 207.161 38.6166 264.409 98.2548 283.52C173.618 307.584 404.57 317.627 465.706 260.276Z" fill="#F2F3F6"></path><path d="M413.203 92.97C408.635 85.8934 404.975 76.6621 409.122 69.3568C412.03 64.1914 418.169 61.5866 424.072 61.3283C431.909 60.9815 439.568 64.1988 445.826 68.9583C452.083 73.7178 457.005 79.9384 461.573 86.314C468.561 96.0766 486.618 132.227 460.902 130.08C441.775 128.449 422.884 107.942 413.203 92.97Z" fill="#F2F3F6"></path><path d="M346.902 73.4725C346.902 73.4725 370.581 46.3911 380.588 59.917C390.594 73.443 368.442 80.8147 368.442 80.8147C368.442 80.8147 372.463 88.9318 358.111 96.5027C358.111 96.5027 372.869 104.103 353.787 121.651C334.704 139.198 309.608 145.884 309.608 145.884L306.154 90.0165L321.031 75.118C321.031 75.118 343.832 51.1654 346.902 73.4725Z" fill="#A3DB9A"></path><path d="M346.393 75.1762L346.171 73.5749C345.537 68.9408 343.958 66.0925 341.574 65.111C337.567 63.4802 331.716 67.037 327.517 70.2764L326.609 69.14C331.118 65.6276 337.464 61.8495 342.106 63.7385C344.747 64.8159 346.533 67.5388 347.359 71.8556C350.414 68.5718 359.631 59.2372 368.316 56.293L368.788 57.695C358.79 61.082 347.551 73.8405 347.433 73.9291L346.393 75.1762Z" fill="#5E3B3B"></path><path d="M308.93 146.843L305.402 89.7357L320.5 74.5938L321.548 75.6342L306.915 90.3113L310.287 144.917C314.877 143.544 336.601 136.483 353.315 121.09L354.319 122.174C335.354 139.641 310.044 146.526 309.8 146.592L308.93 146.843Z" fill="#5E3B3B"></path><path d="M364.303 105.617H362.827C362.923 99.9203 358.008 97.2933 357.802 97.1826L356.555 96.5332L357.794 95.8765C371.328 88.7187 367.815 81.2363 367.778 81.1625L367.402 80.4246L368.206 80.159C368.324 80.1221 379.858 76.1964 382.079 69.1567C382.95 66.3895 382.256 63.4452 379.998 60.3976L381.186 59.5195C383.739 62.9656 384.514 66.36 383.489 69.6068C381.356 76.3587 372.08 80.2918 369.387 81.3027C370.059 83.5165 370.863 90.2167 359.587 96.5997C361.046 97.6075 362.237 98.9551 363.059 100.526C363.88 102.097 364.307 103.844 364.303 105.617Z" fill="#5E3B3B"></path><path d="M309.534 134.734L308.258 133.996C327.872 99.8679 372.537 67.4736 372.988 67.1562L373.844 68.3517C373.423 68.669 328.986 100.871 309.534 134.734Z" fill="#FFFFFF"></path><path d="M330.757 105.055C330.58 104.317 326.587 86.3115 335.457 72.9258L336.689 73.7449C328.167 86.5993 332.151 104.545 332.196 104.737L330.757 105.055Z" fill="#FFFFFF"></path><path d="M325.369 116.367C324.282 116.37 323.195 116.306 322.115 116.175L322.292 114.699C336.453 116.404 353.786 105.107 353.956 105.025L354.768 106.265C354.096 106.708 339.227 116.367 325.369 116.367Z" fill="#FFFFFF"></path><path d="M353.212 88.8871C351.803 88.9441 350.413 88.5513 349.242 87.7655L350.106 86.57C353.795 89.2118 361.772 84.8802 361.853 84.8359L362.591 86.1347C362.289 86.2822 357.477 88.8871 353.212 88.8871Z" fill="#FFFFFF"></path><path d="M142.198 86.6237C142.198 86.6237 127.219 53.9194 143.674 50.3331C160.129 46.7468 157.753 69.9911 157.753 69.9911C157.753 69.9911 166.8 69.6517 167.833 85.8193C167.833 85.8193 180.806 75.4885 188.997 100.076C197.187 124.663 192.974 150.335 192.974 150.335L140.582 130.574L133.085 110.901C133.085 110.901 120.592 80.2702 142.198 86.6237Z" fill="#78C170"></path><path d="M129.925 103.359C128.574 97.81 127.711 90.4678 131.401 86.9922C133.467 85.022 136.669 84.535 140.949 85.5164C139.208 81.3841 134.478 69.1495 135.356 60.0215L136.832 60.1617C135.821 70.6769 142.846 86.1584 142.912 86.3133L143.591 87.7891L142.034 87.3316C137.547 86.0108 134.315 86.2543 132.441 88.0696C129.312 91.0581 130.154 97.8469 131.415 103.012L129.925 103.359Z" fill="#5E3B3B"></path><path d="M193.534 151.323L140.013 131.119L132.391 111.136L133.771 110.612L141.15 129.975L192.353 149.301C192.981 144.556 195.453 121.843 188.273 100.289L189.667 99.8164C197.784 124.278 193.726 150.172 193.682 150.43L193.534 151.323Z" fill="#5E3B3B"></path><path d="M167.167 87.2641L167.072 85.8621C166.105 70.6832 158.084 70.7201 157.752 70.7275H156.91L156.992 69.8936C156.992 69.7682 158.158 57.6369 152.653 52.7298C150.483 50.7964 147.487 50.2282 143.798 51.0326L143.48 49.5567C147.679 48.6417 151.088 49.328 153.627 51.5934C158.91 56.3086 158.689 66.3516 158.512 69.2442C160.829 69.5542 167.234 71.5761 168.444 84.46C169.968 83.5396 171.693 83.0048 173.47 82.9019C175.247 82.7991 177.022 83.1313 178.642 83.8697L178.015 85.2053C172.849 82.7923 168.422 86.1867 168.26 86.3343L167.167 87.2641Z" fill="#5E3B3B"></path><path d="M181.544 146.689C158.469 114.804 147.245 60.7811 147.135 60.2424L148.611 59.9473C148.721 60.4859 159.879 114.199 182.769 145.826L181.544 146.689Z" fill="#FFFFFF"></path><path d="M164.379 114.303C163.641 114.148 145.569 110.414 137.002 96.8364L138.256 96.0469C146.484 109.093 164.489 112.82 164.674 112.857L164.379 114.303Z" fill="#FFFFFF"></path><path d="M170.968 126.737L169.699 125.999C177.078 113.794 173.905 93.3533 173.868 93.1541L175.344 92.918C175.47 93.7666 178.598 114.067 170.968 126.737Z" fill="#FFFFFF"></path><path d="M156.195 90.3488L155.457 89.0648C159.361 86.8511 158.704 77.7379 158.696 77.6493L160.172 77.5312C160.194 77.9445 160.903 87.648 156.195 90.3488Z" fill="#FFFFFF"></path><path d="M201.43 188.042C201.43 188.042 200.987 114.059 158.181 135.185C158.181 135.185 148.551 102.665 125.521 112.827C125.521 112.827 114.563 93.0431 99.1699 103.972C83.777 114.9 121.477 137.429 121.477 137.429C121.477 137.429 101.789 162.584 137.711 174.442C137.682 174.479 143.172 213.234 201.43 188.042Z" fill="#A3DB9A"></path><path d="M201.303 184.699C200.809 184.544 151.361 168.377 114.281 113.225L115.506 112.398C152.284 167.1 201.259 183.135 201.753 183.29L201.303 184.699Z" fill="#FFFFFF"></path><path d="M178.687 172.9L177.211 172.619C179.646 160.075 168.806 147.449 168.695 147.324L169.81 146.35C170.304 146.896 181.255 159.647 178.687 172.9Z" fill="#FFFFFF"></path><path d="M147.392 160.672C139.961 160.672 130.493 159.359 125.357 153.463L126.472 152.496C134.995 162.281 157.523 158.399 157.744 158.399L158.003 159.875C154.493 160.427 150.944 160.693 147.392 160.672Z" fill="#FFFFFF"></path><path d="M122.871 124.706C122.384 124.654 110.747 123.326 106.238 114.272L107.559 113.615C111.706 121.932 122.915 123.208 123.055 123.208L122.871 124.706Z" fill="#FFFFFF"></path><path d="M125.204 113.772L124.872 113.189C124.82 113.093 119.47 103.596 111.287 101.751C107.42 100.881 103.487 101.84 99.5982 104.614L98.7422 103.412C102.993 100.386 107.324 99.3457 111.619 100.312C119.33 102.061 124.488 109.706 125.824 111.898C130.458 109.979 134.9 109.617 139.047 110.813L138.634 112.215C134.642 111.056 130.332 111.477 125.809 113.484L125.204 113.772Z" fill="#5E3B3B"></path><path d="M169.316 197.252L169.257 195.776C178.178 195.437 188.752 192.669 200.684 187.556C200.574 182.84 199.164 145.377 182.163 134.876C175.772 130.928 167.81 131.253 158.505 135.843L157.716 136.234L157.472 135.393C157.472 135.297 154.432 125.313 147.953 118.339L149.038 117.336C154.72 123.461 157.753 131.556 158.631 134.153C168.091 129.674 176.274 129.497 182.982 133.622C201.74 145.207 202.168 186.294 202.212 188.035V188.522L201.769 188.714C189.439 194.027 178.532 196.905 169.316 197.252Z" fill="#5E3B3B"></path><path d="M152.034 194.174C148.225 192.36 144.888 189.688 142.285 186.369C139.683 183.049 137.884 179.171 137.032 175.039C125.402 171.121 118.37 165.343 116.12 157.964C113.36 148.821 118.702 140.151 120.414 137.708C117.138 135.687 103.442 126.898 97.502 117.991L98.7269 117.18C105.169 126.839 121.691 136.764 121.86 136.86L122.598 137.288L122.082 137.952C122.008 138.048 114.577 147.715 117.558 157.544C119.691 164.576 126.546 170.044 137.94 173.778L138.368 173.925L138.434 174.375C138.434 174.501 140.389 187.031 152.69 192.823L152.034 194.174Z" fill="#5E3B3B"></path><path d="M168.32 280.422H117.271V281.529H168.32V280.422Z" fill="#5E3B3B"></path><path d="M183.107 275.396H147.223V276.503H183.107V275.396Z" fill="#5E3B3B"></path><path d="M100.859 84.9109C99.8371 84.9109 98.8385 84.6079 97.989 84.0403C97.1396 83.4728 96.4775 82.666 96.0866 81.7222C95.6956 80.7783 95.5933 79.7397 95.7926 78.7378C95.9919 77.7358 96.4839 76.8154 97.2063 76.093C97.9287 75.3706 98.849 74.8786 99.851 74.6793C100.853 74.48 101.892 74.5823 102.835 74.9733C103.779 75.3642 104.586 76.0263 105.154 76.8757C105.721 77.7252 106.024 78.7239 106.024 79.7455C106.024 81.1154 105.48 82.4293 104.511 83.398C103.543 84.3666 102.229 84.9109 100.859 84.9109ZM100.859 76.0043C100.129 76.0043 99.4157 76.2206 98.8089 76.6261C98.2022 77.0315 97.7293 77.6077 97.45 78.2819C97.1708 78.9561 97.0977 79.6979 97.2401 80.4136C97.3824 81.1293 97.7338 81.7867 98.2498 82.3027C98.7658 82.8187 99.4232 83.1701 100.139 83.3125C100.855 83.4548 101.597 83.3818 102.271 83.1025C102.945 82.8233 103.521 82.3504 103.927 81.7436C104.332 81.1369 104.548 80.4235 104.548 79.6938C104.546 78.7166 104.157 77.78 103.465 77.0897C102.773 76.3993 101.836 76.0116 100.859 76.0116V76.0043Z" fill="#3D3D3D"></path><path d="M460.997 118.118C459.976 118.118 458.977 117.815 458.128 117.247C457.278 116.68 456.616 115.873 456.225 114.929C455.834 113.985 455.732 112.947 455.931 111.945C456.131 110.943 456.623 110.022 457.345 109.3C458.067 108.578 458.988 108.086 459.99 107.886C460.992 107.687 462.03 107.789 462.974 108.18C463.918 108.571 464.725 109.233 465.292 110.083C465.86 110.932 466.163 111.931 466.163 112.953C466.153 114.319 465.606 115.628 464.639 116.594C463.673 117.561 462.364 118.108 460.997 118.118ZM460.997 109.211C460.268 109.211 459.554 109.428 458.948 109.833C458.341 110.239 457.868 110.815 457.589 111.489C457.309 112.163 457.236 112.905 457.379 113.621C457.521 114.336 457.873 114.994 458.389 115.51C458.905 116.026 459.562 116.377 460.278 116.52C460.993 116.662 461.735 116.589 462.409 116.31C463.084 116.03 463.66 115.557 464.065 114.951C464.471 114.344 464.687 113.631 464.687 112.901C464.692 112.413 464.6 111.929 464.417 111.478C464.234 111.026 463.963 110.615 463.619 110.268C463.276 109.922 462.868 109.646 462.418 109.459C461.968 109.271 461.485 109.174 460.997 109.174V109.211Z" fill="#FFFFFF"></path><path d="M106.903 217.655C106.385 217.654 105.88 217.499 105.45 217.21C105.02 216.921 104.685 216.512 104.488 216.033C104.291 215.554 104.24 215.028 104.342 214.52C104.444 214.012 104.694 213.546 105.061 213.181C105.428 212.815 105.894 212.566 106.402 212.466C106.91 212.365 107.437 212.418 107.915 212.616C108.393 212.815 108.802 213.15 109.089 213.581C109.377 214.012 109.53 214.518 109.53 215.036C109.53 215.38 109.462 215.721 109.33 216.04C109.198 216.358 109.004 216.647 108.76 216.891C108.516 217.134 108.227 217.327 107.908 217.458C107.589 217.589 107.248 217.656 106.903 217.655ZM106.903 213.161C106.531 213.161 106.167 213.272 105.857 213.479C105.547 213.686 105.306 213.98 105.164 214.325C105.022 214.669 104.985 215.048 105.058 215.413C105.131 215.778 105.311 216.113 105.575 216.376C105.839 216.639 106.175 216.818 106.541 216.889C106.906 216.961 107.285 216.923 107.628 216.779C107.972 216.636 108.266 216.393 108.471 216.083C108.677 215.773 108.786 215.408 108.785 215.036C108.785 214.789 108.736 214.544 108.642 214.317C108.547 214.089 108.408 213.882 108.233 213.708C108.059 213.534 107.851 213.396 107.623 213.302C107.395 213.208 107.15 213.16 106.903 213.161Z" fill="#FFFFFF"></path><path d="M475.948 222.163C475.43 222.163 474.923 222.009 474.492 221.722C474.062 221.434 473.726 221.025 473.528 220.546C473.329 220.067 473.277 219.541 473.378 219.032C473.48 218.524 473.729 218.057 474.095 217.691C474.462 217.325 474.929 217.075 475.437 216.974C475.945 216.873 476.472 216.925 476.95 217.123C477.429 217.322 477.838 217.657 478.126 218.088C478.414 218.519 478.567 219.025 478.567 219.543C478.565 220.238 478.289 220.903 477.798 221.394C477.307 221.884 476.642 222.161 475.948 222.163ZM475.948 217.669C475.577 217.669 475.215 217.779 474.906 217.985C474.598 218.191 474.358 218.484 474.216 218.826C474.074 219.169 474.037 219.546 474.109 219.909C474.182 220.273 474.36 220.607 474.622 220.869C474.885 221.131 475.218 221.309 475.582 221.382C475.946 221.454 476.323 221.417 476.665 221.275C477.008 221.133 477.3 220.893 477.506 220.585C477.712 220.277 477.822 219.914 477.822 219.543C477.826 219.294 477.78 219.047 477.688 218.816C477.596 218.585 477.458 218.374 477.284 218.196C477.11 218.019 476.902 217.877 476.672 217.78C476.443 217.684 476.197 217.633 475.948 217.632V217.669Z" fill="#FFFFFF"></path><path d="M431.533 95.6328C431.013 95.6343 430.504 95.4813 430.071 95.1932C429.637 94.9051 429.3 94.4949 429.1 94.0146C428.9 93.5343 428.847 93.0055 428.949 92.4952C429.05 91.9849 429.3 91.5162 429.668 91.1483C430.036 90.7805 430.504 90.5302 431.015 90.429C431.525 90.3279 432.054 90.3805 432.534 90.5803C433.014 90.78 433.425 91.1179 433.713 91.551C434.001 91.9841 434.154 92.493 434.152 93.0132C434.152 93.708 433.876 94.3743 433.385 94.8656C432.894 95.3568 432.228 95.6328 431.533 95.6328ZM431.533 91.1316C431.16 91.1301 430.796 91.2392 430.485 91.4451C430.175 91.651 429.933 91.9443 429.789 92.288C429.646 92.6317 429.607 93.0103 429.679 93.3758C429.751 93.7413 429.929 94.0773 430.192 94.3412C430.455 94.6051 430.79 94.785 431.156 94.8582C431.521 94.9314 431.899 94.8946 432.244 94.7524C432.588 94.6102 432.882 94.369 433.089 94.0594C433.297 93.7498 433.407 93.3857 433.407 93.0132C433.407 92.5155 433.21 92.038 432.859 91.6853C432.507 91.3326 432.031 91.1335 431.533 91.1316Z" fill="#3D3D3D"></path><path d="M478.072 251.753H465.402L471.734 240.787L478.072 251.753ZM467.97 250.277H475.512L471.741 243.739L467.97 250.277Z" fill="#3D3D3D"></path><path d="M142.927 206.792H130.271L136.595 195.834L142.927 206.792ZM132.825 205.316H140.374L136.595 198.786L132.825 205.316Z" fill="#EF8C89"></path><path d="M179.159 56.1318H166.496L172.827 45.1738L179.159 56.1318ZM169.057 54.656H176.598L172.827 48.1255L169.057 54.656Z" fill="#FFFFFF"></path><path d="M73.1943 56.4057L72.1465 56.0367C72.2572 55.7268 83.5841 24.7713 116.163 24.0703V25.1772C84.3663 25.8782 73.305 56.1326 73.1943 56.4057Z" fill="#F2F3F6"></path><path d="M496.653 223.544L495.59 223.234C505.183 190.175 475.903 166.894 475.607 166.658L476.286 165.787C476.596 166.023 506.445 189.777 496.653 223.544Z" fill="#F2F3F6"></path><path d="M254.611 334.953C258.692 330.876 263.762 327.93 269.325 326.402C274.887 324.874 280.751 324.818 286.342 326.238C276.864 332.694 265.68 336.187 254.213 336.274" fill="#16D8A4"></path><path d="M265.384 296.81C264.055 287.461 267.693 276.931 274.696 270.127C274.932 279.403 271.007 289.837 265.384 296.81Z" fill="#16D8A4"></path><path d="M259.776 314.489C264.839 304.879 272.896 297.18 282.726 292.559C281.19 297.945 278.247 302.825 274.199 306.696C270.151 310.568 265.145 313.291 259.695 314.585" fill="#16D8A4"></path><path d="M258.617 317.899C264.27 318.054 269.988 317.862 275.456 316.423C280.924 314.984 286.156 312.195 289.794 307.863C278.727 307.893 267.913 311.183 258.706 317.323" fill="#16D8A4"></path><path d="M261.496 306.668C258.626 295.916 253.896 288.478 245.447 282.449C244.8 287.736 246.062 293.08 249.004 297.519C251.946 301.959 256.376 305.203 261.496 306.668Z" fill="#16D8A4"></path><path d="M240.155 325.206C240.132 322.067 241.038 318.991 242.757 316.365C244.477 313.74 246.935 311.681 249.821 310.447C249.356 315.996 244.995 322.424 240.155 325.206Z" fill="#16D8A4"></path><path d="M237.455 316.144C237.064 311.648 235.399 307.356 232.654 303.773C229.909 300.191 226.199 297.465 221.959 295.918C223.907 304.898 229.102 312.381 237.455 316.144Z" fill="#16D8A4"></path><path d="M241.528 332.229C239.528 329.381 236.282 327.603 232.917 326.724C229.552 325.846 226.032 325.765 222.586 325.691C224.956 328.264 227.856 330.293 231.085 331.638C234.314 332.983 237.796 333.613 241.292 333.484" fill="#16D8A4"></path><path d="M245.564 355.141C239.221 353.192 232.378 353.686 226.381 356.528C220.385 359.37 215.669 364.353 213.162 370.497C224.932 368.284 236.547 363.03 245.564 355.141Z" fill="#16D8A4"></path><path d="M258.485 347.18C256.53 352.958 256.906 359.946 261.253 364.89C262.111 361.915 262.309 358.788 261.83 355.728C261.352 352.669 260.211 349.751 258.485 347.18Z" fill="#16D8A4"></path><path d="M266.115 343.969C266.435 347.692 267.708 351.269 269.813 354.357C271.917 357.444 274.781 359.938 278.128 361.597C278.284 361.699 278.458 361.767 278.641 361.797C278.824 361.828 279.011 361.82 279.191 361.775C279.715 361.553 279.767 360.837 279.7 360.299C278.852 352.92 273.362 345.732 266.115 343.984" fill="#16D8A4"></path><path d="M271.088 343.217C272.747 345.01 274.756 346.443 276.991 347.427C279.227 348.411 281.641 348.925 284.083 348.937C286.526 348.95 288.945 348.46 291.19 347.499C293.435 346.538 295.459 345.126 297.136 343.35C288.857 342.45 279.301 341.874 271.088 343.217Z" fill="#16D8A4"></path><path d="M272.343 277.027C272.325 277.11 272.3 277.192 272.269 277.271C272.203 277.441 272.122 277.677 272.019 277.972C271.782 278.599 271.443 279.499 271.015 280.65C270.587 281.802 270.056 283.241 269.465 284.901L268.506 287.557C268.174 288.509 267.835 289.505 267.466 290.553C265.99 294.745 264.374 299.785 262.617 305.385C260.861 310.986 259.076 317.192 257.29 323.73C255.504 330.268 253.969 336.547 252.641 342.266C251.313 347.985 250.243 353.173 249.438 357.541C249.232 358.626 249.04 359.666 248.855 360.648C248.671 361.629 248.531 362.566 248.376 363.437C248.081 365.178 247.822 366.676 247.638 367.901C247.453 369.126 247.306 370.071 247.202 370.728C247.151 371.045 247.107 371.288 247.077 371.465C247.071 371.551 247.054 371.635 247.025 371.716V371.458L247.114 370.72L247.49 367.887C247.645 366.654 247.881 365.149 248.169 363.407C248.309 362.537 248.457 361.607 248.619 360.618C248.782 359.629 248.988 358.589 249.18 357.497C249.918 353.121 251.047 347.941 252.324 342.2C253.6 336.459 255.187 330.201 256.95 323.649C258.714 317.096 260.559 310.912 262.3 305.297C264.042 299.681 265.724 294.671 267.222 290.479L268.277 287.491C268.624 286.554 268.949 285.668 269.259 284.842C269.871 283.189 270.402 281.757 270.867 280.606C271.332 279.455 271.672 278.57 271.923 277.95C272.041 277.655 272.129 277.426 272.203 277.256C272.243 277.176 272.29 277.1 272.343 277.027Z" fill="#263238"></path><path d="M226.865 300.713C226.865 300.713 226.917 300.713 227.005 300.846L227.404 301.259C227.751 301.628 228.245 302.181 228.88 302.904C230.655 304.955 232.285 307.128 233.757 309.406C235.951 312.789 237.667 316.459 238.856 320.312C240.207 325.047 241.228 329.869 241.911 334.745C243.594 345.076 245.66 354.322 247.158 361.008L248.951 368.926C249.15 369.848 249.313 370.571 249.431 371.08C249.475 371.316 249.512 371.501 249.541 371.641C249.553 371.707 249.553 371.774 249.541 371.84L249.482 371.648L249.335 371.095L248.803 368.955C248.346 367.066 247.704 364.38 246.907 361.059C245.357 354.381 243.254 345.135 241.572 334.797C240.886 329.936 239.875 325.126 238.546 320.4C237.377 316.567 235.692 312.91 233.536 309.531C232.087 307.247 230.489 305.061 228.754 302.986C228.149 302.248 227.662 301.687 227.33 301.303L226.961 300.868C226.925 300.819 226.893 300.767 226.865 300.713Z" fill="#263238"></path><path d="M273.575 342.871C273.479 342.901 273.38 342.919 273.279 342.923L272.424 343.019L271.804 343.078L271.066 343.188C270.534 343.27 269.937 343.343 269.287 343.491L268.254 343.69L267.155 343.971C266.417 344.148 265.598 344.428 264.757 344.709C262.948 345.335 261.193 346.107 259.51 347.018C257.841 347.953 256.267 349.048 254.81 350.287C254.18 350.831 253.579 351.407 253.009 352.014C252.499 352.536 252.021 353.088 251.577 353.667C251.142 354.169 250.84 354.692 250.522 355.143C250.254 355.512 250.008 355.896 249.784 356.294L249.349 357.032C249.303 357.124 249.243 357.208 249.172 357.283C249.201 357.185 249.24 357.091 249.29 357.002L249.681 356.264C249.876 355.851 250.103 355.454 250.36 355.076C250.674 354.566 251.017 354.073 251.386 353.6C251.823 353.009 252.296 352.445 252.802 351.911C253.37 351.287 253.971 350.696 254.603 350.14C256.065 348.874 257.652 347.762 259.34 346.819C261.038 345.896 262.814 345.124 264.646 344.509C265.502 344.258 266.299 343.985 267.081 343.823L268.188 343.557L269.228 343.373C269.892 343.24 270.498 343.181 271.029 343.115L271.767 343.033H272.387L273.25 342.997C273.35 342.935 273.46 342.893 273.575 342.871Z" fill="#263238"></path><path d="M275.937 300.912C275.756 301.119 275.556 301.31 275.339 301.48L273.635 302.956C272.159 304.188 270.174 305.908 267.938 307.738C265.702 309.568 263.658 311.265 262.175 312.453L260.411 313.855C260.203 314.038 259.975 314.199 259.732 314.335C259.912 314.124 260.112 313.931 260.33 313.759L262.035 312.283C263.511 311.044 265.496 309.332 267.731 307.494C269.967 305.657 272.004 303.974 273.494 302.786L275.258 301.384C275.466 301.202 275.693 301.043 275.937 300.912Z" fill="#263238"></path><path d="M277.973 311.864C277.973 311.945 273.649 313.34 268.262 314.897C262.876 316.454 258.485 317.708 258.463 317.627C258.441 317.546 262.787 316.188 268.174 314.594C273.561 313 277.944 311.775 277.973 311.864Z" fill="#263238"></path><path d="M261.916 307.503C261.748 307.308 261.597 307.098 261.466 306.876L260.323 305.134C259.348 303.658 257.969 301.659 256.338 299.519C254.707 297.379 253.135 295.527 251.977 294.191C251.423 293.571 250.966 293.04 250.597 292.627C250.416 292.442 250.255 292.239 250.117 292.021C250.325 292.172 250.516 292.345 250.685 292.538C251.04 292.885 251.541 293.401 252.161 294.014C253.364 295.305 254.973 297.15 256.589 299.297C258.205 301.445 259.585 303.474 260.514 304.979C260.979 305.717 261.341 306.352 261.577 306.787C261.72 307.01 261.834 307.251 261.916 307.503Z" fill="#263238"></path><path d="M246.818 313.582C246.516 314.163 246.176 314.722 245.799 315.257C245.15 316.275 244.272 317.7 243.357 319.301C242.442 320.902 241.674 322.385 241.143 323.47C240.875 324.068 240.567 324.648 240.221 325.204C240.407 324.572 240.654 323.959 240.959 323.374C241.453 322.267 242.191 320.755 243.113 319.146C244.036 317.537 244.943 316.128 245.644 315.132C245.99 314.582 246.383 314.064 246.818 313.582Z" fill="#263238"></path><path d="M241.654 332.526C241.654 332.57 240.805 332.164 239.44 331.559C238.075 330.954 236.186 330.149 234.046 329.397C231.906 328.644 229.921 328.091 228.474 327.722C227.687 327.555 226.909 327.348 226.143 327.102C226.361 327.099 226.579 327.121 226.792 327.168C227.205 327.235 227.796 327.345 228.526 327.5C230.446 327.93 232.339 328.474 234.193 329.131C236.031 329.778 237.83 330.532 239.58 331.389C240.244 331.721 240.783 332.009 241.144 332.216C241.325 332.3 241.496 332.404 241.654 332.526Z" fill="#263238"></path><path d="M245.719 355.178C245.719 355.178 245.631 355.222 245.453 355.266L244.671 355.466L241.779 356.137C238.59 356.808 235.438 357.641 232.333 358.631C229.245 359.662 226.288 361.051 223.523 362.771C222.467 363.442 221.648 364.033 221.095 364.461C220.819 364.697 220.526 364.912 220.217 365.103L220.416 364.903C220.549 364.778 220.748 364.586 221.021 364.365C221.78 363.723 222.576 363.127 223.405 362.579C226.164 360.793 229.14 359.365 232.26 358.329C235.375 357.331 238.549 356.525 241.764 355.916L244.671 355.347C245.016 355.268 245.366 355.211 245.719 355.178Z" fill="#263238"></path><path d="M260.425 360.764C260.336 360.764 259.82 357.724 259.274 353.953C258.727 350.182 258.344 347.105 258.425 347.098C258.506 347.09 259.03 350.13 259.583 353.909C260.137 357.687 260.513 360.749 260.425 360.764Z" fill="#263238"></path><path d="M275.737 355.201C275.239 354.689 274.778 354.141 274.357 353.563C273.531 352.537 272.387 351.113 271.089 349.571C269.79 348.028 268.587 346.656 267.716 345.667C267.221 345.151 266.763 344.601 266.344 344.021C266.506 344.125 266.653 344.252 266.779 344.398C267.052 344.656 267.428 345.032 267.886 345.512C268.801 346.471 270.033 347.822 271.332 349.371C272.631 350.921 273.752 352.323 274.535 353.43C274.926 353.961 275.272 354.397 275.442 354.706C275.56 354.859 275.659 355.025 275.737 355.201Z" fill="#263238"></path><path d="M235.219 369.406V376.97H237.108L243.838 398.192H258.751L265.267 377.184L267.783 376.97V369.406H235.219Z" fill="#455A64"></path><path d="M266.521 377.176C266.521 377.265 259.938 377.339 251.821 377.339C243.704 377.339 237.107 377.265 237.107 377.176C237.107 377.088 243.697 377.021 251.821 377.021C259.946 377.021 266.521 377.095 266.521 377.176Z" fill="#263238"></path><path d="M277.251 328.518C276.938 328.63 276.618 328.716 276.291 328.776L273.679 329.403C271.465 329.949 268.44 330.783 265.156 331.882C261.872 332.982 258.95 334.163 256.869 335.055L254.397 336.14C254.104 336.29 253.798 336.414 253.482 336.509C253.755 336.323 254.044 336.162 254.346 336.03C254.914 335.734 255.74 335.329 256.774 334.856C262.181 332.391 267.829 330.492 273.627 329.189C274.734 328.938 275.642 328.761 276.269 328.65C276.592 328.58 276.92 328.535 277.251 328.518Z" fill="#263238"></path><path d="M261.57 388.967C261.57 389.056 256.95 389.122 251.239 389.122C245.528 389.122 240.908 389.056 240.908 388.967C240.908 388.878 245.528 388.805 251.239 388.805C256.95 388.805 261.57 388.901 261.57 388.967Z" fill="#FAFAFA"></path><path d="M262.153 387.212C262.153 387.3 257.261 387.367 251.217 387.367C245.174 387.367 240.281 387.3 240.281 387.212C240.281 387.123 245.181 387.057 251.217 387.057C257.253 387.057 262.153 387.123 262.153 387.212Z" fill="#FAFAFA"></path><g filter="url(#filter0_d_13029_81369)" fill="none"><path d="M311.931 210.845V85.7973C311.931 80.6553 311.931 75.5186 311.964 70.3766C311.996 66.0646 312.335 61.537 310.735 57.3813C309.242 53.5888 306.607 50.3545 303.194 48.1267C299.2 45.4317 294.414 44.5047 289.487 44.3915C283.822 44.2621 278.168 44.3915 272.482 44.3915H219.827C214.831 44.3915 210.018 44.5208 205.382 46.375C201.166 48.0309 197.67 51.1236 195.513 55.1068C193.336 59.3271 193.303 63.6607 193.298 68.199C193.298 73.4057 193.298 78.6124 193.298 83.8299V224.131C193.298 228.481 192.877 233.003 194.025 237.272C195.831 243.982 201.388 249.529 208.913 251.485C213.688 252.725 218.895 252.331 223.81 252.348C229.696 252.373 235.582 252.382 241.468 252.375C253.159 252.375 264.855 252.321 276.546 252.304H285.477C288.061 252.388 290.648 252.313 293.223 252.078C297.145 251.589 300.881 250.123 304.089 247.815C307.112 245.637 309.435 242.625 310.772 239.148C312.389 234.927 311.915 230.351 311.915 225.964L311.931 210.845Z" fill="#455A64"></path><path d="M291.104 51.0859H214.145C206.608 51.0859 200.498 57.1961 200.498 64.7334V231.93C200.498 239.468 206.608 245.578 214.145 245.578H291.104C298.641 245.578 304.751 239.468 304.751 231.93V64.7334C304.751 57.1961 298.641 51.0859 291.104 51.0859Z" fill="#FFFFFF"></path><line x1="251.17" y1="116.268" x2="290.267" y2="116.268" stroke="#028BFF" stroke-width="2.22584px" stroke-linecap="round" stroke-dasharray="0.03 8.35" fill="none"></line><line x1="210.404" y1="115.711" x2="289.711" y2="115.711" stroke="url(&quot;#paint0_linear_13029_81369&quot;)" stroke-width="3.33875px" stroke-linecap="round" fill="none"></line><circle cx="235.42" cy="115.045" r="14.8793" fill="#028BFF"></circle><circle cx="235.419" cy="115.044" r="10.5777" fill="#FFFFFF"></circle><path d="M239.324 116.15V116.123C239.281 115.729 239.131 115.356 238.888 115.043C238.444 114.47 237.723 114.157 236.96 113.932C236.706 113.856 236.446 113.792 236.191 113.733V111.433C236.922 111.528 237.627 111.768 238.265 112.138L238.942 110.47C238.197 109.995 237.206 109.726 236.191 109.644V108.16H234.831V109.661C234.52 109.694 234.212 109.755 233.912 109.842C233.739 109.894 233.57 109.956 233.406 110.028C232.828 110.267 232.341 110.682 232.013 111.213C231.772 111.626 231.647 112.097 231.651 112.575C231.651 112.745 231.665 112.914 231.694 113.081C231.744 113.375 231.853 113.655 232.015 113.905C232.176 114.154 232.388 114.368 232.636 114.533C233.242 114.977 234.057 115.199 234.831 115.386V117.649C234.201 117.586 233.586 117.42 233.009 117.158C232.724 117.03 232.453 116.872 232.201 116.687L232.154 116.79L232.027 117.072L231.455 118.338C231.545 118.409 231.64 118.475 231.739 118.535C232.498 119.015 233.646 119.35 234.831 119.421V120.898H236.186V119.379C237.928 119.169 238.933 118.315 239.24 117.238C239.309 116.996 239.344 116.745 239.343 116.493C239.342 116.379 239.336 116.264 239.324 116.15ZM233.827 112.471C233.827 112.102 234.022 111.767 234.499 111.572C234.606 111.528 234.717 111.493 234.831 111.467V113.393C234.235 113.205 233.827 112.944 233.827 112.471ZM236.186 117.595V115.724C236.237 115.742 236.287 115.759 236.334 115.78C236.841 115.975 237.16 116.228 237.16 116.666C237.16 116.713 237.156 116.761 237.147 116.807C237.095 117.171 236.787 117.463 236.186 117.595Z" fill="#30357C"></path><path d="M270.3 45.7383H240.525C237.825 45.7383 235.637 47.927 235.637 50.627V56.2164C235.637 58.9164 237.825 61.1051 240.525 61.1051H270.3C273 61.1051 275.188 58.9164 275.188 56.2164V50.627C275.188 47.927 273 45.7383 270.3 45.7383Z" fill="#455A64"></path><path d="M200.617 210.357H304.663V233.971C304.663 240.491 299.377 245.777 292.856 245.777H212.424C205.903 245.777 200.617 240.491 200.617 233.971V210.357Z" fill="#16D8A4"></path><path d="M235.172 230.125C235.172 231.691 234.539 232.475 233.272 232.475C232.933 232.475 232.607 232.412 232.292 232.286C231.985 232.152 231.701 231.959 231.442 231.707C231.213 231.959 230.914 232.152 230.544 232.286C230.182 232.412 229.789 232.475 229.364 232.475C228.946 232.475 228.596 232.412 228.313 232.286V232.475C228.321 233.128 228.148 233.691 227.793 234.163C227.447 234.635 226.947 234.993 226.294 235.237C225.641 235.489 224.865 235.611 223.968 235.603C222.968 235.595 222.193 235.328 221.642 234.801C221.099 234.281 220.827 233.588 220.827 232.723C220.827 232.195 220.902 231.628 221.052 231.022C221.209 230.408 221.434 229.732 221.725 228.992L222.669 229.346C222.221 230.684 221.992 231.762 221.985 232.581C221.985 233.077 222.158 233.462 222.504 233.738C222.858 234.021 223.401 234.163 224.133 234.163C224.606 234.163 225.074 234.104 225.538 233.986C226.003 233.876 226.392 233.687 226.707 233.419C227.022 233.159 227.179 232.821 227.179 232.404C227.179 232.026 227.116 231.499 226.991 230.822C226.865 230.145 226.703 229.432 226.506 228.685L227.628 228.212L227.687 228.496C227.939 229.629 228.081 230.275 228.112 230.432C228.191 230.849 228.569 231.058 229.246 231.058C229.6 231.058 229.915 231.007 230.19 230.904C230.473 230.794 230.674 230.649 230.792 230.467C230.871 230.349 230.93 230.227 230.969 230.101C231.009 229.976 231.04 229.795 231.064 229.558C231.095 229.322 231.127 228.937 231.158 228.401L232.115 228.425C232.115 228.59 232.111 228.712 232.103 228.791C232.095 229.295 232.083 229.68 232.067 229.948C232.052 230.208 232.024 230.436 231.985 230.633C232.174 230.774 232.382 230.881 232.61 230.952C232.839 231.015 233.051 231.046 233.248 231.046C233.539 231.046 233.748 230.983 233.874 230.857C234.008 230.731 234.074 230.515 234.074 230.208C234.074 229.995 234.043 229.704 233.98 229.334C233.925 228.964 233.823 228.425 233.673 227.717L234.818 227.339C235.054 228.519 235.172 229.448 235.172 230.125ZM230.592 224.871L231.253 224.092H231.312L232.126 224.765V224.824L231.465 225.615H231.418L230.592 224.93V224.871ZM231.536 226.323L232.221 225.509H232.28L233.142 226.205V226.264L232.445 227.091H232.398L231.536 226.382V226.323ZM229.919 226.512L230.603 225.698H230.662L231.524 226.394V226.453L230.828 227.28H230.78L229.919 226.571V226.512ZM234.438 234.34C235.556 234.316 236.382 234.088 236.918 233.655C237.453 233.222 237.72 232.585 237.72 231.743C237.72 231.365 237.661 230.932 237.543 230.444C237.425 229.948 237.252 229.373 237.024 228.72L238.169 228.177C238.633 229.586 238.866 230.719 238.866 231.577C238.866 232.86 238.496 233.848 237.756 234.541C237.024 235.241 235.934 235.564 234.485 235.509L234.438 234.34ZM242.817 232.486C241.896 232.486 241.239 232.25 240.845 231.778C240.459 231.298 240.259 230.546 240.243 229.523L240.196 223.927L241.376 223.797L241.388 229.44C241.388 229.889 241.435 230.231 241.53 230.467C241.632 230.696 241.782 230.853 241.979 230.94C242.183 231.018 242.463 231.058 242.817 231.058C243.006 231.058 243.167 231.129 243.301 231.27C243.443 231.404 243.513 231.569 243.513 231.766C243.513 231.955 243.443 232.124 243.301 232.274C243.159 232.416 242.998 232.486 242.817 232.486ZM249.737 231.058C249.926 231.058 250.088 231.129 250.221 231.27C250.363 231.404 250.434 231.569 250.434 231.766C250.434 231.955 250.367 232.124 250.233 232.274C250.099 232.416 249.938 232.486 249.749 232.486C248.128 232.486 246.813 232.258 245.806 231.802C245.467 232.046 245.066 232.223 244.601 232.333C244.145 232.435 243.551 232.486 242.819 232.486C242.622 232.486 242.457 232.416 242.323 232.274C242.189 232.132 242.122 231.963 242.122 231.766C242.122 231.577 242.193 231.412 242.335 231.27C242.468 231.129 242.63 231.058 242.819 231.058C243.614 231.058 244.2 231.015 244.578 230.928C244.137 230.44 243.917 229.846 243.917 229.145C243.917 228.374 244.141 227.787 244.59 227.386C245.038 226.977 245.64 226.772 246.396 226.772C247.144 226.772 247.722 226.973 248.132 227.374C248.541 227.776 248.746 228.33 248.746 229.039C248.746 229.645 248.584 230.294 248.261 230.987C248.679 231.034 249.171 231.058 249.737 231.058ZM246.384 228.094C245.967 228.094 245.64 228.193 245.404 228.39C245.176 228.578 245.062 228.854 245.062 229.216C245.062 229.995 245.766 230.534 247.175 230.833C247.451 230.22 247.589 229.68 247.589 229.216C247.589 228.854 247.482 228.578 247.27 228.39C247.065 228.193 246.77 228.094 246.384 228.094ZM245.086 224.977V224.918L245.818 224.045H245.877L246.786 224.8V224.859L246.054 225.733H245.995L245.086 224.977ZM259.548 230.137C259.548 231.703 258.914 232.486 257.647 232.486C257.316 232.486 256.994 232.42 256.679 232.286C256.364 232.152 256.077 231.959 255.817 231.707C255.581 231.959 255.278 232.152 254.908 232.286C254.546 232.42 254.156 232.486 253.739 232.486C253.101 232.486 252.48 232.29 251.874 231.896C251.637 232.101 251.346 232.25 251 232.345C250.654 232.439 250.236 232.486 249.748 232.486C249.559 232.486 249.394 232.416 249.253 232.274C249.111 232.124 249.04 231.951 249.04 231.754C249.04 231.566 249.111 231.404 249.253 231.27C249.386 231.129 249.552 231.058 249.748 231.058C250.614 231.058 251.173 230.861 251.425 230.467C251.535 230.294 251.61 230.09 251.649 229.854C251.696 229.617 251.744 229.129 251.791 228.39L252.735 228.425C252.728 229.118 252.712 229.641 252.688 229.995C252.665 230.342 252.617 230.633 252.547 230.869C252.893 230.995 253.251 231.058 253.621 231.058C253.975 231.058 254.294 231.007 254.577 230.904C254.861 230.802 255.061 230.66 255.179 230.479C255.29 230.306 255.364 230.101 255.404 229.865C255.443 229.629 255.486 229.141 255.534 228.401L256.49 228.425C256.474 229.086 256.458 229.566 256.443 229.865C256.427 230.164 256.399 230.424 256.36 230.645C256.549 230.786 256.758 230.893 256.986 230.963C257.214 231.026 257.427 231.058 257.623 231.058C257.923 231.058 258.135 230.991 258.261 230.857C258.395 230.723 258.462 230.495 258.462 230.172C258.454 229.968 258.418 229.684 258.355 229.322C258.292 228.96 258.19 228.429 258.048 227.728L259.194 227.339C259.43 228.535 259.548 229.468 259.548 230.137ZM273.776 231.058C273.965 231.058 274.126 231.129 274.26 231.27C274.402 231.404 274.472 231.569 274.472 231.766C274.472 231.963 274.402 232.132 274.26 232.274C274.126 232.416 273.965 232.486 273.776 232.486C273.162 232.486 272.646 232.416 272.229 232.274C271.82 232.132 271.493 231.904 271.249 231.589C270.722 231.998 270.084 232.294 269.336 232.475C268.589 232.664 267.711 232.75 266.704 232.734C265.452 232.726 264.531 232.506 263.941 232.073C263.358 231.64 263.067 230.983 263.067 230.101C263.067 229.362 263.26 228.484 263.646 227.469L264.543 227.74C264.291 228.543 264.165 229.196 264.165 229.7C264.165 230.141 264.271 230.475 264.484 230.704C264.696 230.932 265.019 231.089 265.452 231.176C265.885 231.255 266.479 231.294 267.235 231.294C267.983 231.294 268.66 231.231 269.266 231.105C269.872 230.971 270.379 230.778 270.789 230.527C270.726 230.235 270.686 229.881 270.671 229.464L270.635 227.929L271.651 227.835L271.757 229.299C271.788 229.795 271.863 230.164 271.981 230.408C272.099 230.652 272.292 230.822 272.56 230.916C272.835 231.011 273.241 231.058 273.776 231.058ZM267.353 226.276L268.061 225.426H268.12L269.006 226.158V226.217L268.297 227.067H268.238L267.353 226.335V226.276ZM265.7 226.465L266.408 225.627H266.467L267.353 226.359V226.406L266.645 227.268H266.586L265.7 226.536V226.465ZM278.794 231.058C278.983 231.058 279.144 231.129 279.278 231.27C279.42 231.412 279.491 231.577 279.491 231.766C279.491 231.963 279.424 232.132 279.29 232.274C279.156 232.416 278.991 232.486 278.794 232.486C278.259 232.486 277.736 232.4 277.224 232.227C276.712 232.054 276.295 231.802 275.972 231.471C275.477 232.148 274.745 232.486 273.776 232.486C273.587 232.486 273.426 232.416 273.292 232.274C273.151 232.124 273.08 231.955 273.08 231.766C273.08 231.569 273.151 231.404 273.292 231.27C273.426 231.129 273.587 231.058 273.776 231.058C274.154 231.058 274.457 230.999 274.686 230.881C274.922 230.763 275.114 230.582 275.264 230.338C275.414 230.094 275.563 229.751 275.713 229.31L276.02 228.449L276.941 228.779L276.752 229.653C276.665 230.007 276.586 230.271 276.516 230.444C277.098 230.853 277.858 231.058 278.794 231.058ZM275.276 234.293V234.234L276.008 233.36H276.067L276.976 234.116V234.175L276.244 235.048H276.185L275.276 234.293ZM278.095 231.766C278.095 231.577 278.166 231.412 278.308 231.27C278.442 231.129 278.603 231.058 278.792 231.058H278.922C279.74 231.058 280.358 230.963 280.775 230.774C281.193 230.578 281.401 230.275 281.401 229.865C281.401 229.566 281.362 229.212 281.283 228.803C281.212 228.386 281.078 227.791 280.882 227.02L282.051 226.619C282.239 227.461 282.361 228.09 282.417 228.508C282.48 228.925 282.511 229.354 282.511 229.795C282.511 230.676 282.208 231.345 281.602 231.802C280.996 232.258 280.106 232.486 278.934 232.486H278.792C278.595 232.486 278.43 232.416 278.296 232.274C278.162 232.132 278.095 231.963 278.095 231.766ZM280.114 223.454L280.775 222.675H280.834L281.649 223.348V223.407L280.988 224.198H280.941L280.114 223.513V223.454ZM281.059 224.907L281.744 224.092H281.803L282.664 224.789V224.848L281.968 225.674H281.921L281.059 224.966V224.907ZM279.441 225.095L280.126 224.281H280.185L281.047 224.977V225.036L280.35 225.863H280.303L279.441 225.155V225.095Z" fill="#3D3D3D"></path><rect x="217.59" y="132.877" width="35.4198" height="11.8066" rx="5.9033" fill="#C6E5FF"></rect><rect x="213.9" y="162.393" width="80.4325" height="2.95165" rx="1.47583" fill="#E4E4E4"></rect><rect x="213.9" y="172.723" width="80.4325" height="2.95165" rx="1.47583" fill="#E4E4E4"></rect><rect x="213.9" y="183.055" width="80.4325" height="2.95165" rx="1.47583" fill="#E4E4E4"></rect></g><rect x="64.8418" y="397.049" width="377.811" height="2.95165" fill="#455A64"></rect><path d="M88.3858 397.047C88.3858 397.047 70.7251 383.254 75.1402 372.305C79.5554 361.357 102.285 386.61 102.285 386.61C102.285 386.61 87.7147 354.9 105.42 352.178C123.124 349.457 128.299 387.508 128.299 387.508C128.299 387.508 129.853 354.609 140.662 358.212C151.47 361.815 147.161 385.042 147.161 385.042C147.161 385.042 153.43 362.449 161.501 364.466C169.572 366.483 163.744 387.728 163.744 387.728C163.744 387.728 176.301 369.178 185.043 374.516C193.785 379.854 188.345 397.047 188.345 397.047H88.3858Z" fill="#E4E4E4"></path><path d="M216.614 125.142C216.614 125.142 225.159 118.294 222.931 113.527C220.702 108.76 211.811 109.366 209.789 121.224C207.767 133.082 216.614 125.142 216.614 125.142Z" fill="#FAAE7B"></path><path d="M152.955 167.271L154.224 170.761L159.958 186.574L160.069 186.87L160.297 186.803C173.803 181.747 186.154 174.028 196.617 164.105C200.085 160.704 203.143 156.91 205.731 152.8C214.416 139.326 219.013 123.918 219.013 123.918C219.013 123.918 216.128 119.734 209.664 118.701L185.859 150.306C185.859 150.306 166.001 161.493 152.955 167.271Z" fill="#323949"></path><g style="mix-blend-mode:multiply;" fill="none"><path d="M159.958 186.573L160.297 186.802C173.803 181.746 186.154 174.027 196.618 164.104C200.085 160.703 203.143 156.909 205.731 152.799C205.731 152.799 187.851 179.216 154.224 170.789C153.579 170.702 152.927 170.675 152.276 170.708C138.035 169.882 146.373 177.689 159.958 186.573Z" fill="#26225A"></path></g><path d="M155.959 249.99C156.01 258.631 157.582 266.172 162.533 267.855C166.821 269.331 171.765 269.663 176.428 269.485C178.963 269.369 181.49 269.123 183.999 268.748C185.136 268.578 186.213 268.401 187.202 268.216C191.194 267.478 193.843 266.681 193.843 266.681C193.843 266.681 189.143 262.158 184.604 230.524C184.383 228.979 184.164 227.368 183.948 225.69C183.505 222.355 183.062 218.761 182.642 214.873C179.137 182.928 169.861 172.339 164.57 168.864C163.424 168.027 162.11 167.45 160.718 167.174L159.552 219.802C159.552 219.802 158.814 222.982 158.076 227.697C157.08 233.778 155.907 242.308 155.959 249.99Z" fill="#323949"></path><path d="M183.512 383.338C183.512 383.338 185.947 389.544 192.102 390.916C198.256 392.289 200.698 395.115 200.883 399.151L173.919 398.923C173.919 398.923 172.311 393.92 174.045 383.81C175.779 373.701 183.512 383.338 183.512 383.338Z" fill="#0D101B"></path><path d="M145.273 251.111L145.79 252.763L151.103 269.89L152.748 275.203L156.748 288.11L166.179 318.571L166.54 322.784L167.654 336.066L171.919 386.982C179.992 390.871 187.098 386.245 187.098 386.245C187.098 386.245 190.847 334.517 191.4 317.043C191.541 312.225 190.662 304.779 189.349 296.529C189.046 294.67 188.729 292.773 188.382 290.862C187.821 287.645 187.202 284.383 186.567 281.144C185.829 277.366 185.047 273.654 184.302 270.134C184.191 269.647 184.095 269.16 183.984 268.658C182.509 261.685 181.092 255.649 180.191 251.826C179.542 249.074 179.144 247.473 179.144 247.473L176.679 247.724L169.3 248.461L163.19 249.103L155.966 249.841L145.273 251.111Z" fill="#181E27"></path><g style="mix-blend-mode:multiply;" opacity="0.5" fill="none"><path d="M151.117 269.892L152.763 275.205L156.762 288.111L166.193 318.572L166.554 322.785L167.669 336.068C180.693 317.871 185.12 296.272 186.596 281.233C185.858 277.455 185.076 273.744 184.331 270.224C184.22 269.737 184.124 269.25 184.013 268.748C182.538 261.775 181.121 255.739 180.22 251.916C179.571 249.164 179.173 247.562 179.173 247.562L176.708 247.813L169.329 248.551L163.219 249.193L151.117 269.892Z" fill="#6D2337"></path></g><path d="M123.469 375.412C123.469 375.412 122.731 382.053 127.557 386.104C132.383 390.155 133.224 393.815 131.512 397.475L107.736 384.761C107.736 384.761 108.629 379.596 114.865 371.427C121.1 363.258 123.469 375.412 123.469 375.412Z" fill="#0D101B"></path><path d="M110.828 374.713C116.311 381.819 125.04 380.985 125.04 380.985C125.04 380.985 151.605 336.444 159.936 321.081C168.267 305.718 180.221 253.437 180.221 253.437L148.388 241.35L145.355 259.524L144.292 265.878L136.751 311.053L127.261 334.378L122.487 346.089L110.828 374.713Z" fill="#181E27"></path><path d="M134.279 246.95C134.878 248.284 135.921 249.369 137.231 250.02C139.994 251.221 142.872 252.141 145.82 252.765C147.348 253.112 148.912 253.407 150.506 253.672H150.69C156.8 254.578 162.963 255.072 169.138 255.148C172.142 255.207 174.739 255.185 176.643 255.148C178.775 255.089 180.052 255.015 180.052 255.015C180.111 253.975 180.163 252.927 180.222 251.909C180.222 251.842 180.222 251.791 180.222 251.724C183.328 190.256 165.936 171.609 161.678 167.964C161.378 167.696 161.06 167.45 160.726 167.226L145.776 165.75C145.776 165.75 143.474 173.461 140.773 184.176C138.987 191.289 137.024 199.76 135.445 208.21C135.947 211.685 136.552 215.168 137.216 218.54C139.157 228.532 137.069 238.826 134.279 246.95Z" fill="#397BBF"></path><g style="mix-blend-mode:multiply;" opacity="0.5" fill="none"><path d="M127.262 334.377C154.24 324.622 168.149 270.371 168.149 270.371L145.355 259.553L144.293 265.906L136.751 311.052L127.262 334.377Z" fill="#A32E68"></path></g><path d="M148.742 152.895L148.631 154.555V154.636L147.738 167.557C147.738 167.557 155.907 171.549 161.19 167.808L160.999 165.786L159.855 153.684" fill="#FAAE7B"></path><g style="mix-blend-mode:multiply;" fill="none"><path d="M148.616 154.556C148.612 154.583 148.612 154.61 148.616 154.637C148.675 155.626 149.597 164.909 160.983 165.78L159.839 153.678L148.631 154.556H148.616Z" fill="#FAAE7B"></path></g><path d="M89.642 265.087L88.1661 273.351L86.3287 283.837C86.0583 285.389 86.4134 286.984 87.3165 288.274C88.2195 289.565 89.597 290.445 91.1473 290.722L131.991 297.931C132.759 298.071 133.547 298.057 134.309 297.891C135.072 297.724 135.794 297.408 136.433 296.961C137.073 296.513 137.618 295.943 138.035 295.284C138.453 294.625 138.736 293.889 138.868 293.12L140.706 282.715L142.181 274.384C142.452 272.833 142.097 271.237 141.194 269.947C140.291 268.657 138.913 267.777 137.363 267.5L96.4898 260.29C95.7251 260.154 94.9411 260.171 94.1828 260.338C93.4244 260.506 92.7066 260.822 92.0705 261.267C91.4343 261.713 90.8924 262.28 90.4757 262.935C90.0589 263.59 89.7756 264.322 89.642 265.087Z" fill="#0F4C81"></path><path d="M112.178 253.576C110.784 253.332 109.35 253.651 108.19 254.463C107.031 255.275 106.241 256.514 105.994 257.908L105.301 261.841L109.138 262.52L109.832 258.579C109.886 258.297 110.028 258.039 110.237 257.842C110.401 257.677 110.602 257.555 110.823 257.486C111.044 257.417 111.279 257.402 111.507 257.443L124.28 259.701C124.654 259.773 124.985 259.987 125.206 260.298C125.426 260.608 125.517 260.992 125.461 261.369L124.767 265.309L128.604 265.981L129.298 262.048C129.54 260.652 129.22 259.217 128.407 258.056C127.593 256.896 126.354 256.105 124.959 255.857L112.178 253.576Z" fill="#131922"></path><path d="M89.6418 265.087L88.166 273.366L140.728 282.715L142.203 274.384C142.474 272.833 142.119 271.237 141.216 269.947C140.313 268.657 138.935 267.777 137.385 267.5L96.5118 260.29C95.7455 260.151 94.9592 260.165 94.1983 260.331C93.4375 260.497 92.717 260.812 92.0784 261.258C91.4398 261.704 90.8957 262.272 90.4776 262.929C90.0594 263.586 89.7754 264.319 89.6418 265.087Z" fill="#072944"></path><path d="M112.568 281.889L114.848 282.295C115.206 282.359 115.575 282.279 115.874 282.071C116.173 281.864 116.377 281.546 116.442 281.188L117.025 277.919C117.087 277.56 117.005 277.191 116.796 276.892C116.588 276.594 116.269 276.39 115.911 276.325L113.631 275.919C113.276 275.863 112.914 275.949 112.621 276.157C112.329 276.365 112.129 276.68 112.066 277.033L111.483 280.302C111.418 280.656 111.496 281.022 111.699 281.319C111.902 281.616 112.215 281.821 112.568 281.889Z" fill="#6FACDD"></path><g style="mix-blend-mode:multiply;" opacity="0.6" fill="none"><path d="M89.6346 265.102L88.1588 273.366L86.3287 283.837C86.0583 285.389 86.4134 286.984 87.3165 288.274C88.2195 289.565 89.597 290.445 91.1473 290.722L131.991 297.931C90.0257 290.05 89.642 265.884 89.6346 265.102Z" fill="#2A519F"></path></g><path d="M127.098 262.593C131.466 267.699 138.904 269.972 146.21 270.857C153.519 271.608 160.894 271.444 168.163 270.37C168.6 265.048 168.92 259.986 169.122 255.184C169.205 253.315 169.269 251.485 169.314 249.694C169.439 245.09 169.454 240.736 169.395 236.618C168.317 173.217 145.782 165.734 145.782 165.734C139.509 168.295 136.27 174.265 134.942 181.968C134.656 183.6 134.454 185.245 134.337 186.898C133.864 193.465 134.418 200.859 135.466 208.209C135.967 211.684 136.572 215.167 137.237 218.539C139.177 228.531 137.089 238.825 134.285 246.949C132.44 252.399 130.031 257.642 127.098 262.593Z" fill="#323949"></path><g style="mix-blend-mode:multiply;" fill="none"><path d="M127.098 262.594C131.466 267.7 138.904 269.973 146.21 270.858C148.797 265.483 150.253 259.633 150.489 253.672C151.227 235.756 141.635 221.307 147.737 213.249C155.854 202.505 156.002 183.283 156.002 183.283L147.737 181.246L140.771 184.198L134.314 186.921C133.842 193.488 134.396 200.882 135.443 208.232C135.945 211.707 136.55 215.19 137.214 218.562C139.155 228.554 137.067 238.848 134.263 246.972C132.423 252.414 130.022 257.649 127.098 262.594Z" fill="#26225A"></path></g><path d="M115.994 248.284C115.994 248.284 111.116 258.091 115.145 261.478C119.174 264.865 126.952 260.571 123.83 248.934C120.709 237.297 115.994 248.284 115.994 248.284Z" fill="#FAAE7B"></path><path d="M141.296 168.494C131.067 178.778 123.045 191.042 117.72 204.534C110.392 223.269 114.355 250.432 114.355 250.432C114.355 250.432 118.723 253.007 125.025 251.222L133.327 212.496C133.327 212.496 146.609 194.011 156.003 183.282L141.296 168.494Z" fill="#323949"></path><path d="M162.127 154.276C158.976 161.352 145.155 150.653 144.682 147.635C143.708 141.458 145.081 137.636 146.896 135.297C147.043 135.095 147.201 134.9 147.368 134.714C148.549 133.328 150.1 132.307 151.84 131.77L161.794 134.212C161.794 134.212 161.913 134.95 162.082 136.19C162.311 137.769 162.599 140.145 162.82 142.691C163.13 147.015 163.189 151.841 162.127 154.276Z" fill="#FAAE7B"></path><g style="mix-blend-mode:multiply;" fill="none"><path d="M162.792 142.689C156.888 143.936 151.494 140.055 151.494 140.055C150.983 141.411 150.069 142.577 148.875 143.398L146.875 135.281L146.742 134.764L147.347 134.698L154.468 133.908C157.051 134.519 159.594 135.288 162.083 136.21C162.312 137.767 162.6 140.144 162.792 142.689Z" fill="#FAAE7B"></path></g><path d="M146.343 150.09C148.306 146.401 150.402 137.893 150.402 137.893C150.402 137.893 163.227 143.892 166.798 137.066C170.37 130.24 163.433 125.828 159.891 128.351C156.349 130.875 151.693 128.89 145.214 133.037C136.322 138.726 146.343 150.09 146.343 150.09Z" fill="#191918"></path><path d="M150.011 142.962C150.011 142.962 151.627 153.44 163.183 149.138C163.183 149.138 165.397 156.828 156.793 157.794C148.189 158.761 146.344 150.09 146.344 150.09L148.557 141.818L150.011 142.962Z" fill="#191918"></path><path d="M144.957 145.111C144.994 145.756 145.222 146.375 145.611 146.891C146 147.406 146.534 147.795 147.144 148.008C147.754 148.221 148.413 148.248 149.039 148.086C149.664 147.924 150.228 147.581 150.658 147.099C151.089 146.617 151.367 146.018 151.457 145.379C151.547 144.739 151.446 144.087 151.166 143.504C150.886 142.922 150.44 142.436 149.884 142.107C149.327 141.778 148.686 141.622 148.041 141.657C147.612 141.681 147.191 141.789 146.803 141.975C146.416 142.162 146.069 142.423 145.782 142.744C145.496 143.065 145.275 143.439 145.133 143.845C144.992 144.251 144.932 144.681 144.957 145.111Z" fill="#FAAE7B"></path><defs><filter id="filter0_d_13029_81369" x="189.533" y="44.334" width="122.483" height="212.488" filterUnits="userSpaceOnUse" color-interpolation-filters="sRGB"><feFlood flood-opacity="0" result="BackgroundImageFix"></feFlood><feColorMatrix in="SourceAlpha" type="matrix" values="0 0 0 0 0 0 0 0 0 0 0 0 0 0 0 0 0 0 127 0" result="hardAlpha"></feColorMatrix><feOffset dx="-3.68956" dy="4.42748"></feOffset><feComposite in2="hardAlpha" operator="out"></feComposite><feColorMatrix type="matrix" values="0 0 0 0 0 0 0 0 0 0 0 0 0 0 0 0 0 0 0.04 0"></feColorMatrix><feBlend mode="normal" in2="BackgroundImageFix" result="effect1_dropShadow_13029_81369"></feBlend><feBlend mode="normal" in="SourceGraphic" in2="effect1_dropShadow_13029_81369" result="shape"></feBlend></filter><linearGradient id="paint0_linear_13029_81369" x1="208.734" y1="117.381" x2="291.381" y2="117.381" gradientUnits="userSpaceOnUse"><stop stop-color="#028BFF"></stop><stop offset="1" stop-color="#00569F"></stop></linearGradient><linearGradient id="paint0_linear_13029_81369" x1="208.734" y1="117.381" x2="291.381" y2="117.381" gradientUnits="userSpaceOnUse"><stop stop-color="#028BFF"></stop><stop offset="1" stop-color="#00569F"></stop></linearGradient></defs></svg>