<svg xmlns:xlink="http://www.w3.org/1999/xlink" xmlns="http://www.w3.org/2000/svg" width="34" height="33" viewBox="0 0 34 33" fill="none"><path d="M9.26465 14.3291L10.8783 8.30112C11.0614 7.61796 11.5088 7.03574 12.1218 6.68295C12.7348 6.33016 13.463 6.23581 14.1457 6.42072L27.0284 9.87479C27.7116 10.0579 28.2938 10.5053 28.6466 11.1183C28.9994 11.7313 29.0937 12.4595 28.9088 13.1421L26.8417 20.8638C26.4739 22.2535 25.0674 23.0985 23.6677 22.7708" stroke="#002C51" stroke-width="1.99959px" stroke-linecap="round" stroke-linejoin="round" fill="none"></path><path fill-rule="evenodd" clip-rule="evenodd" d="M23.6684 24.999V16.9973C23.6686 16.2899 23.3877 15.6113 22.8874 15.1111C22.3872 14.6108 21.7086 14.3299 21.0012 14.3301H7.66503C6.95758 14.3299 6.27905 14.6108 5.7788 15.1111C5.27856 15.6113 4.99761 16.2899 4.9978 16.9973V24.999C4.99761 25.7065 5.27856 26.385 5.7788 26.8852C6.27905 27.3855 6.95758 27.6664 7.66503 27.6662H21.0012C22.4742 27.6662 23.6684 26.472 23.6684 24.999Z" stroke="#00569F" stroke-width="1.99959px" stroke-linecap="round" stroke-linejoin="round" fill="none"></path><path d="M4.9978 19.7684H23.6684" stroke="#00569F" stroke-width="1.99959px" stroke-linecap="round" stroke-linejoin="round" fill="none"></path></svg>