<svg xmlns:xlink="http://www.w3.org/1999/xlink" id="header_logo" width="146" height="49" fill="none" xmlns="http://www.w3.org/2000/svg" class=""><path opacity="0.5" d="M129.799 1.23057C127.895 0.57547 125.936 0.166554 123.945 0.00590665C122.853 -0.0817191 121.938 0.817489 122.013 1.9128L122.347 6.74473C122.405 7.60429 123.067 8.29278 123.922 8.39916C125.588 8.60363 127.18 9.07515 128.653 9.76988C129.424 10.1329 130.345 9.8888 130.847 9.19823L133.695 5.28012C134.337 4.39553 134.047 3.14581 133.078 2.64093C132.024 2.09014 130.93 1.62072 129.799 1.23057ZM143.848 21.2259L139.101 22.1605C138.26 22.3253 137.66 23.0681 137.66 23.9277C137.66 25.5925 137.393 27.2657 136.897 28.8096C136.637 29.6191 136.995 30.5015 137.739 30.9125L141.975 33.2535C142.929 33.7813 144.133 33.3368 144.512 32.3125C145.552 29.5023 146.056 26.5335 145.995 23.4979C145.991 23.3018 145.985 23.1056 145.977 22.9116C145.929 21.8142 144.922 21.0151 143.848 21.2259ZM142.877 12.1003C141.883 10.3457 140.685 8.74134 139.299 7.30176C138.539 6.51314 137.258 6.57991 136.591 7.44989L133.645 11.2908C133.122 11.973 133.161 12.9286 133.73 13.5732C134.843 14.8313 135.726 16.2416 136.37 17.7375C136.708 18.522 137.56 18.9476 138.391 18.764L143.116 17.7167C144.181 17.4809 144.791 16.3501 144.399 15.3299C143.975 14.22 143.466 13.1435 142.877 12.1003Z" fill="#FFFFFF"></path><path d="M136.064 33.8687C135.327 33.4411 134.387 33.5933 133.826 34.2401C131.266 37.1923 127.626 39.1805 123.526 39.581C123.024 39.6311 122.514 39.6562 121.997 39.6562C121.48 39.6562 120.97 39.6311 120.468 39.581C117.772 39.3182 115.274 38.3688 113.151 36.9084C112.307 36.3286 111.524 35.6694 110.811 34.9389C108.99 33.0781 107.627 30.7664 106.909 28.1898C106.638 27.2197 106.457 26.2099 106.379 25.1751C106.348 24.7787 106.334 24.376 106.334 23.9713C106.334 21.6617 106.834 19.469 107.734 17.4932C108.159 16.5565 108.673 15.6698 109.267 14.8436C110.903 12.5633 113.132 10.7377 115.728 9.59861C116.305 9.34615 116.899 8.9289 117.186 8.4428C117.399 8.08396 118.551 5.51151 118.551 5.51151C119.105 4.41411 119.257 3.08304 117.747 2.59485L114.632 1.59131C114.203 1.4098 113.722 1.40146 113.286 1.57046C113.076 1.65391 112.863 1.73944 112.655 1.82707C109.796 3.03714 107.23 4.77087 105.027 6.97611C103.896 8.10899 102.89 9.33573 102.017 10.6501C101.452 11.4992 100.942 12.3838 100.488 13.3018C100.275 13.7316 100.075 14.1698 99.8875 14.6141C98.6354 17.5809 98 20.7291 98 23.9713C98 24.8642 98.0479 25.7509 98.1438 26.6292C98.2542 27.6474 98.4312 28.653 98.671 29.644C98.9749 30.8978 99.3793 32.1266 99.8854 33.3263C101.094 36.1888 102.825 38.759 105.027 40.9643C105.161 41.0978 105.296 41.2292 105.432 41.3587C106.173 42.0681 106.955 42.7252 107.771 43.3282C109.28 44.4422 110.913 45.3748 112.655 46.1113C115.149 47.167 117.772 47.7846 120.47 47.9534C120.976 47.9848 121.486 48.0014 121.999 48.0014C122.511 48.0014 123.022 47.9848 123.528 47.9534C126.228 47.7846 128.849 47.167 131.343 46.1113C134.201 44.9013 136.768 43.1676 138.97 40.9622C139.61 40.3217 140.21 39.6501 140.768 38.951C141.448 38.0976 141.204 36.8375 140.26 36.293L136.064 33.8687Z" fill="#FFFFFF"></path><path d="M0.771577 43.0623C0.993743 43.0623 1.17988 43.14 1.32699 43.2955C1.4741 43.451 1.54916 43.6304 1.54916 43.8277C1.54916 44.0311 1.48011 44.2105 1.342 44.3689C1.2039 44.5244 1.01476 44.6022 0.771577 44.6022C0.525393 44.6022 0.336255 44.5244 0.201154 44.3689C0.0660532 44.2135 0 44.034 0 43.8277C0 43.6184 0.0690521 43.439 0.207155 43.2865C0.345259 43.137 0.5344 43.0623 0.771577 43.0623ZM0.123093 36.6484H1.44107V42.4642H0.123093V36.6484Z" fill="#FFFFFF"></path><path d="M4.52148 44.2029C4.67159 43.9637 4.77066 43.7484 4.8217 43.557C4.87274 43.3657 4.89676 43.1683 4.89676 42.965C4.89676 42.1816 4.54249 41.5716 3.83396 41.138L4.49446 39.9838C5.03486 40.3367 5.45517 40.7612 5.7524 41.2576C6.04962 41.754 6.19973 42.2802 6.19973 42.8364C6.19973 43.1803 6.1577 43.5122 6.07364 43.8321C5.98957 44.1521 5.83045 44.5049 5.59928 44.8966L4.22726 47.208L3.10742 46.5681L4.52148 44.2029ZM4.42541 39.3439C4.18823 39.3439 3.99909 39.2662 3.85498 39.1077C3.71087 38.9492 3.63882 38.7668 3.63882 38.5635C3.63882 38.3422 3.71688 38.1568 3.87299 38.0103C4.02911 37.8638 4.21225 37.7891 4.4224 37.7891C4.62656 37.7891 4.80669 37.8638 4.96581 38.0103C5.12193 38.1568 5.19998 38.3422 5.19998 38.5635C5.19998 38.7758 5.12493 38.9612 4.97782 39.1137C4.83371 39.2692 4.64757 39.3439 4.42541 39.3439Z" fill="#FFFFFF"></path><path d="M7.20312 36.6484H8.52111V44.5484H7.20312V36.6484Z" fill="#FFFFFF"></path><path d="M9.50488 40.0117H11.6815C12.0178 40.0117 12.327 40.0715 12.6062 40.1941C12.8854 40.3167 13.1256 40.4782 13.3267 40.6845C13.5279 40.8878 13.681 41.13 13.7951 41.4081C13.9062 41.6862 13.9632 41.9822 13.9632 42.2932C13.9632 42.6281 13.9032 42.9331 13.7831 43.2082C13.663 43.4833 13.4979 43.7195 13.2877 43.9168C13.0775 44.1172 12.8374 44.2726 12.5672 44.3833C12.297 44.4939 12.0088 44.5507 11.7055 44.5507H9.50789V43.259H11.6575C11.9487 43.259 12.1889 43.1723 12.381 43.0018C12.5732 42.8284 12.6662 42.5952 12.6662 42.2962C12.6662 42.1885 12.6482 42.0749 12.6092 41.9553C12.5702 41.8387 12.5101 41.731 12.4291 41.6383C12.348 41.5457 12.2429 41.4709 12.1138 41.4111C11.9847 41.3513 11.8346 41.3214 11.6575 41.3214H9.50789V40.0117H9.50488Z" fill="#FFFFFF"></path><path d="M14.9365 44.1488C15.0866 43.9036 15.1857 43.6883 15.2367 43.4969C15.2877 43.3055 15.3118 43.1082 15.3118 42.9049C15.3118 42.1244 14.9575 41.5174 14.249 41.0839L14.9095 39.9297C15.4499 40.2825 15.8702 40.7071 16.1674 41.2035C16.4647 41.6998 16.6147 42.2261 16.6147 42.7823C16.6147 42.863 16.6147 42.9437 16.6147 43.0245C16.6147 43.1052 16.6057 43.1829 16.5877 43.2577H17.2843V44.5494H16.1644C16.1464 44.5943 16.1224 44.6421 16.0954 44.6959C16.0683 44.7498 16.0413 44.7976 16.0143 44.8425L14.6423 47.1538L13.5225 46.5139L14.9365 44.1488Z" fill="#FFFFFF"></path><path d="M17.2892 44.5495C17.1211 44.5495 16.998 44.4838 16.917 44.3492C16.8389 44.2146 16.7969 44.0711 16.7969 43.9097C16.7969 43.7512 16.8359 43.6017 16.917 43.4641C16.998 43.3266 17.1211 43.2578 17.2892 43.2578H20.7808V44.5495H17.2892Z" fill="#FFFFFF"></path><path d="M21.0609 46.5519C20.8207 46.5519 20.6286 46.4712 20.4875 46.3067C20.3464 46.1423 20.2773 45.9688 20.2773 45.7834C20.2773 45.5711 20.3554 45.3857 20.5085 45.2303C20.6616 45.0748 20.8477 44.997 21.0609 44.997C21.247 44.997 21.4212 45.0688 21.5863 45.2123C21.7514 45.3558 21.8325 45.5472 21.8325 45.7864C21.8325 45.9898 21.7604 46.1692 21.6223 46.3246C21.4812 46.4742 21.2921 46.5519 21.0609 46.5519ZM20.7817 44.5485C20.6226 44.5485 20.5025 44.4827 20.4154 44.3482C20.3314 44.2136 20.2893 44.0701 20.2893 43.9086C20.2893 43.7501 20.3314 43.6066 20.4154 43.478C20.4995 43.3495 20.6226 43.2747 20.7817 43.2568C21.0129 43.2239 21.223 43.1192 21.4092 42.9398C21.5953 42.7604 21.6884 42.5362 21.6884 42.2641V39.9258H22.9974V42.2641C22.9974 42.6259 22.9253 42.9578 22.7782 43.2568H24.1682V44.5485H22.3278V43.8698C22.1057 44.1 21.8595 44.2704 21.5863 44.3841C21.3191 44.4917 21.0489 44.5485 20.7817 44.5485ZM21.9135 47.9991C21.6643 47.9991 21.4692 47.9184 21.3281 47.7629C21.187 47.6044 21.1179 47.428 21.1179 47.2336C21.1179 47.0124 21.196 46.824 21.3491 46.6745C21.5022 46.522 21.6914 46.4472 21.9165 46.4472C22.0937 46.4472 22.2678 46.522 22.436 46.6745C22.6041 46.827 22.6881 47.0124 22.6881 47.2336C22.6881 47.428 22.6131 47.6044 22.463 47.7629C22.3099 47.9184 22.1267 47.9991 21.9135 47.9991ZM22.7542 46.5519C22.505 46.5519 22.3098 46.4712 22.1687 46.3157C22.0276 46.1572 21.9586 45.9808 21.9586 45.7864C21.9586 45.5652 22.0366 45.3768 22.1897 45.2273C22.3429 45.0748 22.532 45 22.7572 45C22.9343 45 23.1084 45.0748 23.2766 45.2273C23.4447 45.3798 23.5287 45.5652 23.5287 45.7864C23.5287 45.9808 23.4537 46.1572 23.3036 46.3157C23.1475 46.4712 22.9674 46.5519 22.7542 46.5519Z" fill="#FFFFFF"></path><path d="M24.171 43.2568C24.4022 43.2239 24.6123 43.1192 24.7985 42.9398C24.9846 42.7604 25.0777 42.5362 25.0777 42.2641V39.9258H26.3746V42.2641C26.3746 42.6079 26.3086 42.9189 26.1795 43.197C26.0504 43.4751 25.8793 43.7143 25.6721 43.9146C25.462 44.1149 25.2248 44.2704 24.9606 44.3811C24.6934 44.4917 24.4322 44.5485 24.174 44.5485C24.0149 44.5485 23.8948 44.4827 23.8077 44.3482C23.7237 44.2136 23.6816 44.0701 23.6816 43.9086C23.6816 43.7501 23.7237 43.6066 23.8077 43.478C23.8918 43.3495 24.0119 43.2747 24.171 43.2568ZM25.447 46.7343C25.2428 46.7343 25.0597 46.6625 24.9006 46.516C24.7414 46.3725 24.6604 46.1841 24.6604 45.9509C24.6604 45.7296 24.7384 45.5442 24.8915 45.3947C25.0447 45.2452 25.2308 45.1705 25.444 45.1705C25.6571 45.1705 25.8433 45.2482 25.9964 45.4007C26.1495 45.5532 26.2275 45.7386 26.2275 45.9509C26.2275 46.1722 26.1495 46.3575 25.9964 46.507C25.8463 46.6595 25.6601 46.7343 25.447 46.7343Z" fill="#FFFFFF"></path><path d="M28.2031 34.8672H30.2026V35.2679H28.2031V34.8672ZM28.2031 35.6895H30.2026V36.0901H28.2031V35.6895Z" fill="#FFFFFF"></path><path d="M29.0381 36.6484H30.3559V44.5484H29.0381V36.6484Z" fill="#FFFFFF"></path><path d="M31.3271 43.2581H33.4768C33.804 43.2581 34.0532 43.1594 34.2273 42.965C34.4014 42.7707 34.4855 42.5464 34.4855 42.2923C34.4855 42.1846 34.4675 42.071 34.4285 41.9514C34.3894 41.8348 34.3294 41.7271 34.2483 41.6344C34.1673 41.5417 34.0622 41.467 33.9331 41.4072C33.807 41.3474 33.6539 41.3175 33.4768 41.3175H31.3271V40.0078H33.5038C33.84 40.0078 34.1493 40.0676 34.4285 40.1902C34.7077 40.3128 34.9478 40.4743 35.149 40.6806C35.3501 40.8839 35.5033 41.1261 35.6173 41.4042C35.7284 41.6823 35.7855 41.9783 35.7855 42.2893C35.7855 42.6511 35.7164 42.974 35.5813 43.2551H36.3739V44.5468H31.3332V43.2581H31.3271Z" fill="#FFFFFF"></path><path d="M36.3752 44.5496C36.2071 44.5496 36.084 44.4838 36.0029 44.3492C35.9248 44.2147 35.8828 44.0711 35.8828 43.9097C35.8828 43.7512 35.9218 43.6017 36.0029 43.4642C36.084 43.3266 36.2071 43.2578 36.3752 43.2578H37.42C37.3479 43.1083 37.2879 42.9439 37.2458 42.7675C37.2038 42.591 37.1798 42.4146 37.1798 42.2382C37.1798 41.8764 37.2428 41.5565 37.3719 41.2754C37.498 40.9973 37.6661 40.7641 37.8763 40.5787C38.0865 40.3933 38.3236 40.2528 38.5878 40.1601C38.855 40.0674 39.1252 40.0195 39.4044 40.0195C39.7497 40.0195 40.0889 40.0913 40.4162 40.2378C40.7464 40.3813 41.0377 40.6176 41.2928 40.9435L40.3501 41.8614C40.137 41.5086 39.8097 41.3322 39.3744 41.3322C39.1342 41.3322 38.9271 41.4159 38.753 41.5834C38.5788 41.7508 38.4948 41.9721 38.4948 42.2502C38.4948 42.5163 38.5788 42.7525 38.7469 42.9528C38.9151 43.1532 39.1613 43.2548 39.4825 43.2548H42.2506V44.5466H36.3752V44.5496Z" fill="#FFFFFF"></path><path d="M42.2569 43.2568C42.4881 43.2239 42.6983 43.1192 42.8844 42.9398C43.0706 42.7604 43.1636 42.5362 43.1636 42.2641V39.9258H44.4606V42.2641C44.4606 42.6079 44.3945 42.9189 44.2654 43.197C44.1364 43.4751 43.9652 43.7143 43.7581 43.9146C43.5479 44.1149 43.3107 44.2704 43.0465 44.3811C42.7793 44.4917 42.5181 44.5485 42.2599 44.5485C42.1008 44.5485 41.9807 44.4827 41.8937 44.3482C41.8096 44.2136 41.7676 44.0701 41.7676 43.9086C41.7676 43.7501 41.8096 43.6066 41.8937 43.478C41.9747 43.3495 42.0978 43.2747 42.2569 43.2568ZM43.5329 46.7343C43.3287 46.7343 43.1456 46.6625 42.9865 46.516C42.8274 46.3725 42.7463 46.1841 42.7463 45.9509C42.7463 45.7296 42.8244 45.5442 42.9775 45.3947C43.1306 45.2452 43.3167 45.1705 43.5299 45.1705C43.7431 45.1705 43.9262 45.2482 44.0823 45.4007C44.2354 45.5532 44.3135 45.7386 44.3135 45.9509C44.3135 46.1722 44.2354 46.3575 44.0823 46.507C43.9292 46.6595 43.7461 46.7343 43.5329 46.7343Z" fill="#FFFFFF"></path><path d="M47.0176 44.5508V44.482C47.0176 44.0574 47.0746 43.6358 47.1857 43.2202C47.2968 42.8046 47.4589 42.3949 47.6721 41.9883H48.6268C48.4316 42.6192 48.3326 43.2531 48.3326 43.896C48.3326 44.0036 48.3326 44.1113 48.3326 44.2189C48.3326 44.3266 48.3416 44.4342 48.3596 44.5478H47.0176V44.5508Z" fill="#FFFFFF"></path><path d="M50.9121 44.1488C51.0622 43.9036 51.1613 43.6883 51.2123 43.4969C51.2634 43.3055 51.2874 43.1082 51.2874 42.9049C51.2874 42.1244 50.9331 41.5174 50.2246 41.0839L50.8851 39.9297C51.4255 40.2825 51.8458 40.7071 52.143 41.2035C52.4402 41.6998 52.5904 42.2261 52.5904 42.7823C52.5904 42.863 52.5904 42.9437 52.5904 43.0245C52.5904 43.1052 52.5814 43.1829 52.5633 43.2577H53.2599V44.5494H52.14C52.122 44.5943 52.098 44.6421 52.071 44.6959C52.044 44.7498 52.0169 44.7976 51.9899 44.8425L50.6179 47.1538L49.498 46.5139L50.9121 44.1488Z" fill="#FFFFFF"></path><path d="M53.2658 44.5495C53.0977 44.5495 52.9746 44.4838 52.8935 44.3492C52.8155 44.2146 52.7734 44.0711 52.7734 43.9097C52.7734 43.7512 52.8125 43.6017 52.8935 43.4641C52.9746 43.3266 53.0977 43.2578 53.2658 43.2578H56.7574V44.5495H53.2658Z" fill="#FFFFFF"></path><path d="M56.7599 44.5497C56.6008 44.5497 56.4807 44.484 56.3937 44.3494C56.3096 44.2148 56.2676 44.0713 56.2676 43.9098C56.2676 43.7514 56.3096 43.6019 56.3937 43.4643C56.4777 43.3268 56.6008 43.258 56.7599 43.258H61.0291L60.6539 42.4895C60.4767 42.1367 60.2636 41.8526 60.0114 41.6403C59.7622 41.428 59.486 41.3204 59.1858 41.3204C58.9906 41.3204 58.8225 41.3623 58.6844 41.446C58.5463 41.5297 58.4112 41.6822 58.2791 41.9035L57.1322 41.2516C57.4174 40.8031 57.7297 40.4802 58.0659 40.2798C58.4022 40.0795 58.8105 39.9808 59.2938 39.9808C59.6661 39.9808 59.9874 40.0406 60.2606 40.1632C60.5308 40.2858 60.7739 40.4592 60.9871 40.6805C61.2003 40.9018 61.3984 41.1739 61.5815 41.4908C61.7647 41.8108 61.9478 42.1636 62.134 42.5553C62.2661 42.8274 62.3982 43.0128 62.5273 43.1085C62.6564 43.2072 62.8005 43.255 62.9596 43.255V44.5467H56.7599V44.5497ZM59.2548 37.7891C59.468 37.7891 59.6511 37.8668 59.8012 38.0223C59.9513 38.1778 60.0264 38.3542 60.0264 38.5486C60.0264 38.7698 59.9423 38.9582 59.7742 39.1137C59.6061 39.2662 59.4319 39.3439 59.2548 39.3439C59.0326 39.3439 58.8435 39.2662 58.6934 39.1137C58.5403 38.9612 58.4652 38.7728 58.4652 38.5486C58.4652 38.3542 58.5343 38.1778 58.6724 38.0223C58.8105 37.8668 59.0056 37.7891 59.2548 37.7891Z" fill="#FFFFFF"></path><path d="M62.9591 43.2568C63.1903 43.2239 63.4004 43.1192 63.5866 42.9398C63.7727 42.7604 63.8658 42.5362 63.8658 42.2641V39.9258H65.1627V42.2641C65.1627 42.6079 65.0967 42.9189 64.9676 43.197C64.8385 43.4751 64.6674 43.7143 64.4602 43.9146C64.2501 44.1149 64.0129 44.2704 63.7487 44.3811C63.4815 44.4917 63.2203 44.5485 62.9621 44.5485C62.803 44.5485 62.6829 44.4827 62.5958 44.3482C62.5118 44.2136 62.4697 44.0701 62.4697 43.9086C62.4697 43.7501 62.5118 43.6066 62.5958 43.478C62.6769 43.3495 62.8 43.2747 62.9591 43.2568ZM64.235 46.7343C64.0309 46.7343 63.8478 46.6625 63.6886 46.516C63.5295 46.3725 63.4485 46.1841 63.4485 45.9509C63.4485 45.7296 63.5265 45.5442 63.6796 45.3947C63.8327 45.2452 64.0189 45.1705 64.232 45.1705C64.4452 45.1705 64.6283 45.2482 64.7844 45.4007C64.9376 45.5532 65.0156 45.7386 65.0156 45.9509C65.0156 46.1722 64.9376 46.3575 64.7844 46.507C64.6313 46.6595 64.4482 46.7343 64.235 46.7343Z" fill="#FFFFFF"></path><path d="M74.7188 43.1406C74.7188 43.6071 74.6467 44.0526 74.5026 44.4802C74.3585 44.9048 74.1453 45.2845 73.8601 45.6194C73.5749 45.9513 73.2146 46.2174 72.7763 46.4178C72.338 46.6181 71.8246 46.7168 71.2392 46.7168C70.8939 46.7168 70.5276 46.651 70.1404 46.5224C69.7531 46.3939 69.3988 46.1935 69.0806 45.9244C68.7593 45.6553 68.4951 45.3114 68.285 44.8958C68.0748 44.4802 67.9697 43.9838 67.9697 43.4067C67.9697 42.9642 68.0448 42.5426 68.1949 42.1419C68.345 41.7442 68.5642 41.3914 68.8524 41.0834C69.1406 40.7754 69.4919 40.5272 69.9062 40.3359C70.3205 40.1445 70.7858 40.0368 71.3052 40.0099V41.3077C71.029 41.3256 70.7648 41.3884 70.5186 41.496C70.2694 41.6037 70.0563 41.7472 69.8762 41.9266C69.696 42.109 69.5549 42.3273 69.4528 42.5814C69.3508 42.8386 69.2997 43.1227 69.2997 43.4336C69.2997 43.7596 69.3538 44.0466 69.4588 44.2978C69.5669 44.546 69.714 44.7553 69.9062 44.9227C70.0983 45.0902 70.3145 45.2187 70.5607 45.3054C70.8068 45.3952 71.071 45.437 71.3533 45.437C71.6205 45.437 71.8786 45.3862 72.1278 45.2845C72.377 45.1829 72.5962 45.0333 72.7853 44.833C72.9775 44.6327 73.1276 44.3935 73.2387 44.1094C73.3497 43.8253 73.4068 43.5024 73.4068 43.1406V39.9531H74.7158V43.1406H74.7188ZM71.3082 44.0466C71.0861 44.0466 70.9029 43.9719 70.7588 43.8194C70.6147 43.6669 70.5427 43.4845 70.5427 43.2722C70.5427 43.0539 70.6147 42.8715 70.7588 42.719C70.9029 42.5665 71.0861 42.4917 71.3082 42.4917C71.5454 42.4917 71.7345 42.5665 71.8786 42.719C72.0228 42.8715 72.0948 43.0539 72.0948 43.2722C72.0948 43.4845 72.0198 43.6669 71.8666 43.8194C71.7135 43.9689 71.5274 44.0466 71.3082 44.0466Z" fill="#FFFFFF"></path><path d="M78.0919 42.9337C78.266 42.7304 78.3501 42.5091 78.3501 42.2669V36.6484H79.668V42.2669C79.668 42.5928 79.605 42.8918 79.4819 43.1669C79.3558 43.442 79.1907 43.6812 78.9805 43.8905C78.7704 44.0998 78.5302 44.2613 78.254 44.3779C77.9778 44.4945 77.6866 44.5513 77.3773 44.5513H75.4469V43.2596H76.8189L75.0176 38.1764L76.2725 37.8295L78.0919 42.9337Z" fill="#FFFFFF"></path><path d="M80.6816 36.6484H81.9996V44.5484H80.6816V36.6484Z" fill="#FFFFFF"></path><path d="M3.95693 21.0741C4.35623 23.6576 5.74326 24.9822 8.11803 25.057V28.9023H7.65569C4.62643 28.9202 2.24264 27.186 0.504339 23.7025C0.195109 22.925 0.0419922 22.1506 0.0419922 21.3731V6.72155C0.0960325 4.59258 1.40201 3.04669 3.95693 2.08984V21.0741Z" fill="#FFFFFF"></path><path d="M7.08203 25.0535H8.65821V1.92188H12.6002V13.2963C13.9602 12.8089 14.7678 12.5368 15.02 12.483L16.1068 12.3484H22.0092C24.9093 12.3484 27.2121 14.0379 28.9174 17.4137C29.2266 18.227 29.3797 18.9745 29.3797 19.6623V25.0535H31.0401L31.013 28.8988H7.08203V25.0535ZM25.5759 25.0535V19.9912C25.1045 17.5184 23.9156 16.2804 22.0122 16.2804H16.1668C14.2814 16.2804 13.1016 17.5184 12.6302 19.9912V25.0565H25.5759V25.0535Z" fill="#FFFFFF"></path><path d="M60.4964 26.3269C59.2624 27.2837 58.1936 27.9894 57.287 28.4379C56.5064 28.7459 55.7288 28.8984 54.9482 28.8984H53.6963C52.2282 28.8984 50.4959 28.1479 48.5024 26.6498H48.0401C46.0106 28.1479 44.2693 28.8984 42.8192 28.8984H41.5672C39.7359 28.8984 37.8865 28.0313 36.0191 26.297C34.0977 28.0313 32.2933 28.8984 30.6061 28.8984H29.9004V25.0531H30.2008C32.7377 25.0352 34.0076 23.3099 34.0076 19.8802V12.1866H37.9766V21.0972C37.9766 23.0647 39.3006 24.3564 41.9455 24.9694C44.7376 24.464 46.1336 23.0826 46.1336 20.8251V12.1836H50.2407V20.1194C50.2407 22.8284 51.3996 24.3893 53.7203 24.8049H54.7531C57.272 24.4252 58.5329 22.954 58.5329 20.3915V12.1836H62.5019V20.7682C62.736 23.6029 63.7538 25.0292 65.5491 25.0471V28.8924C64.084 28.9014 62.3998 28.0432 60.4964 26.3269Z" fill="#FFFFFF"></path><path d="M66.4751 21.1821V15.0074C66.4751 12.1907 68.1894 9.95114 71.6149 8.29162L73.5454 7.93879H74.6592C77.5233 7.93879 79.79 9.60129 81.4563 12.9233C81.7475 13.6649 81.8916 14.4034 81.8916 15.145V23.0539C81.8916 25.2217 80.0512 27.0905 76.3705 28.6604L74.8483 28.9055H64.6768V25.0602L74.5211 25.0333C77.04 25.0513 78.3009 24.1662 78.3009 22.3781V21.1581L66.4751 21.1821ZM69.8346 6.64406C68.9069 6.64406 68.1143 6.31814 67.4598 5.6633C66.8023 5.01145 66.4751 4.22206 66.4751 3.29811C66.4751 2.40705 66.8023 1.63261 67.4598 0.980761C68.1143 0.328914 68.9069 0 69.8346 0C70.7623 0 71.5549 0.325924 72.2094 0.980761C72.8639 1.6356 73.1941 2.40705 73.1941 3.29811C73.1941 4.22206 72.8669 5.01145 72.2094 5.6633C71.5549 6.31515 70.7623 6.64406 69.8346 6.64406ZM70.2009 17.851H78.3039V15.8208C78.3039 13.1296 77.043 11.7841 74.5241 11.7841H73.9807C71.8401 11.7841 70.5822 13.1027 70.2009 15.737V17.851ZM77.8416 6.64406C76.9139 6.64406 76.1213 6.31814 75.4668 5.6633C74.8093 5.01145 74.4821 4.22206 74.4821 3.29811C74.4821 2.37416 74.8093 1.59374 75.4668 0.956843C76.1213 0.319946 76.9139 0 77.8416 0C78.7693 0 79.5619 0.319946 80.2164 0.956843C80.8708 1.59374 81.2011 2.37416 81.2011 3.29811C81.2011 4.22206 80.8738 5.01145 80.2164 5.6633C79.5619 6.31515 78.7693 6.64406 77.8416 6.64406Z" fill="#FFFFFF"></path></svg>