<svg xmlns:xlink="http://www.w3.org/1999/xlink" id="header-notification" width="40" height="42" viewBox="0 0 40 42" fill="none" xmlns="http://www.w3.org/2000/svg" class="col-12"><path d="M23.3327 35.332C22.5458 36.3812 21.3108 36.9987 19.9993 36.9987C18.6879 36.9987 17.4529 36.3812 16.666 35.332" stroke="#FFFFFF" stroke-width="2.49836px" stroke-linecap="round" stroke-linejoin="round" fill="none"></path><path fill-rule="evenodd" clip-rule="evenodd" d="M10.0001 22.8029V17C10.0001 11.4772 14.4773 7 20.0001 7C22.6523 7 25.1958 8.05357 27.0712 9.92893C28.9466 11.8043 30.0001 14.3478 30.0001 17V22.8029H29.9926L32.2859 25.098C33.3023 26.1151 33.606 27.6444 33.0553 28.9727C32.5046 30.301 31.2081 31.1669 29.7701 31.1667H10.2301C8.79219 31.1669 7.49563 30.301 6.94497 28.9727C6.39431 27.6444 6.69796 26.1151 7.71436 25.0979L10.0077 22.8029" fill="#FFFFFF" fill-opacity="0.16"></path><path d="M10.0001 22.8029V17C10.0001 11.4772 14.4773 7 20.0001 7V7C22.6523 7 25.1958 8.05357 27.0712 9.92893C28.9466 11.8043 30.0001 14.3478 30.0001 17V22.8029H29.9926L32.2859 25.098C33.3023 26.1151 33.606 27.6444 33.0553 28.9727C32.5046 30.301 31.2081 31.1669 29.7701 31.1667H10.2301C8.79219 31.1669 7.49563 30.301 6.94497 28.9727C6.39431 27.6444 6.69796 26.1151 7.71436 25.0979L10.0077 22.8029" stroke="#FFFFFF" stroke-width="2.49836px" stroke-linecap="round" stroke-linejoin="round" fill="none"></path><circle cx="28.4531" cy="8.19141" r="6.25" fill="#FFFBFB" stroke="#424D8E" stroke-width="2.5px"></circle></svg>