<svg xmlns:xlink="http://www.w3.org/1999/xlink" id="neworder-toman_Ico" width="20" height="22" viewBox="0 0 20 22" fill="none" xmlns="http://www.w3.org/2000/svg" class="32 me-2 toman"><path d="M3.12127 1.04042L4.1617 0L5.20212 1.04042L4.1617 2.08085L3.12127 1.04042ZM8.46256 5.04308C8.44489 5.80738 8.277 6.44577 7.95891 6.95825C7.64082 7.47515 7.18357 7.85951 6.58714 8.11133C5.99514 8.36757 5.26618 8.49569 4.40026 8.49569H4.06229C2.72366 8.49569 1.71195 8.1776 1.02717 7.54142C0.34239 6.90965 0 5.96863 0 4.71836V2.32604H1.41816V4.71173C1.41816 5.49812 1.63464 6.0835 2.06759 6.46786C2.50497 6.85222 3.16987 7.0444 4.06229 7.0444H4.40026C5.29711 7.0444 5.9598 6.88094 6.38834 6.55401C6.81688 6.22708 7.03115 5.73448 7.03115 5.07621V1.07356H8.46256V5.04308Z" fill="#3D3D3D"></path><path d="M2.59775 18.2505H2.29291C1.53302 18.2505 0.960901 18.0296 0.576541 17.5878C0.19218 17.1416 0 16.49 0 15.6329V9.41683H1.36514V15.6395C1.36514 16.0371 1.44246 16.3287 1.59708 16.5142C1.75613 16.6998 1.9947 16.7926 2.31279 16.7926H2.59775C2.7082 16.7926 2.76342 17.0201 2.76342 17.4752V17.548C2.76342 18.0163 2.7082 18.2505 2.59775 18.2505Z" fill="#3D3D3D"></path><path d="M2.52485 16.7926H3.18754C3.47029 16.7926 3.66468 16.7594 3.77071 16.6932C3.87674 16.6269 3.93859 16.5253 3.95626 16.3883C3.96952 16.2735 3.97614 16.0217 3.97614 15.6329C3.97614 14.7493 4.17495 14.08 4.57256 13.6249C4.9746 13.1699 5.54672 12.9423 6.28893 12.9423C7.86614 12.9423 8.65474 13.8436 8.65474 15.6461C8.65474 16.5076 8.45151 17.1725 8.04506 17.6408C7.63861 18.1091 7.05324 18.3433 6.28893 18.3433C5.92224 18.3433 5.60857 18.2969 5.34791 18.2041C5.08725 18.1069 4.84869 17.9589 4.63221 17.7601C4.30086 18.087 3.82372 18.2505 3.2008 18.2505H2.52485C2.4144 18.2505 2.35918 18.0163 2.35918 17.548V17.4752C2.35918 17.0201 2.4144 16.7926 2.52485 16.7926ZM5.34791 15.6196C5.34791 16.49 5.666 16.9251 6.30219 16.9251C6.93837 16.9251 7.25646 16.49 7.25646 15.6196C7.25646 15.1867 7.17915 14.873 7.02452 14.6786C6.86989 14.4842 6.6269 14.387 6.29556 14.387C5.97305 14.387 5.73448 14.4842 5.57985 14.6786C5.42523 14.873 5.34791 15.1867 5.34791 15.6196Z" fill="#3D3D3D"></path><path d="M15.2883 18.2505H14.4864C14.4555 19.2224 14.0954 19.9801 13.4062 20.5235C12.7214 21.0714 11.7605 21.3453 10.5235 21.3453H9.9006V19.9139H10.4838C11.3188 19.9139 11.9527 19.7703 12.3857 19.4831C12.8231 19.2004 13.0572 18.7895 13.0881 18.2505H12.1537C11.3541 18.2505 10.7466 18.0495 10.3313 17.6475C9.92048 17.2454 9.71504 16.6534 9.71504 15.8714C9.71504 15.4871 9.76585 15.1336 9.86746 14.8111C9.97349 14.4842 10.1237 14.1993 10.3181 13.9563C10.5169 13.7133 10.7731 13.5233 11.0868 13.3864C11.4005 13.2494 11.7539 13.1809 12.1471 13.1809C12.8805 13.1809 13.4526 13.4195 13.8635 13.8966C14.2788 14.3693 14.4864 15.0077 14.4864 15.8118V16.7926H15.2883C15.3987 16.7926 15.4539 17.0201 15.4539 17.4752V17.548C15.4539 18.0163 15.3987 18.2505 15.2883 18.2505ZM11.0868 15.8449C11.0868 16.1674 11.1708 16.406 11.3386 16.5606C11.5109 16.7153 11.7804 16.7926 12.1471 16.7926H13.1014V15.8052C13.1014 14.9923 12.7745 14.5858 12.1206 14.5858C11.4314 14.5858 11.0868 15.0055 11.0868 15.8449Z" fill="#3D3D3D"></path><path d="M15.2154 16.7926H17.0974C17.5348 16.7926 17.844 16.7131 18.0252 16.554C18.2107 16.3905 18.3035 16.0879 18.3035 15.6461V13.5653H19.7217V15.6528C19.7217 16.5054 19.4986 17.1526 19.0524 17.5944C18.6106 18.0318 17.9611 18.2505 17.104 18.2505H15.2154C15.1049 18.2505 15.0497 18.0163 15.0497 17.548V17.4752C15.0497 17.0201 15.1049 16.7926 15.2154 16.7926ZM17.9655 11.3254L18.9795 10.3048L20 11.3254L18.9795 12.3459L17.9655 11.3254ZM15.5666 11.3254L16.5871 10.3048L17.6011 11.3254L16.5871 12.3459L15.5666 11.3254Z" fill="#3D3D3D"></path></svg>